<svg width="157" height="97" viewBox="0 0 157 97" fill="none" xmlns="http://www.w3.org/2000/svg">
<path fill-rule="evenodd" clip-rule="evenodd" d="M0 107.8C0 84.5905 18.8806 65.7998 42.2006 65.7998V107.8H0Z" fill="#E58983" fill-opacity="0.39"/>
<path fill-rule="evenodd" clip-rule="evenodd" d="M42.2007 65.7998C65.521 65.7998 84.4013 84.859 84.4013 108.4H42.2007V65.7998Z" fill="#E58983"/>
<path fill-rule="evenodd" clip-rule="evenodd" d="M72.5161 41.6967C72.7606 18.613 91.3502 0 114.276 0V21.0788C102.814 21.0788 93.5187 30.4329 93.3959 41.9271C93.5187 53.4214 102.814 62.7754 114.276 62.7754V83.8543C91.3502 83.8543 72.7606 65.2413 72.5161 42.1576H72.5137C72.5137 42.0807 72.5139 42.0039 72.5143 41.9271C72.5139 41.8504 72.5137 41.7735 72.5137 41.6967H72.5161ZM156.038 41.9271C156.039 42.0039 156.039 42.0807 156.039 42.1576H156.036C155.792 65.2413 137.202 83.8543 114.277 83.8543V62.7755C125.691 62.7754 135.034 53.469 135.157 41.9271C135.034 30.3853 125.691 21.0788 114.277 21.0788V0C137.202 0 155.792 18.613 156.036 41.6967H156.039C156.039 41.7735 156.039 41.8504 156.038 41.9271Z" fill="#8AD0F0"/>
</svg>
