<svg width="164" height="97" viewBox="0 0 164 97" fill="none" xmlns="http://www.w3.org/2000/svg">
<path d="M163.322 43.2999L145.741 32.6304L150.43 12.9671L130.257 17.5397L119.315 0.399902L108.372 17.5397L88.1994 12.9671L92.889 32.6304L75.3074 43.2999L92.889 53.9694L88.1994 73.6327L108.372 69.0601L119.315 86.1999L130.257 69.0601L150.43 73.6327L145.741 53.9694L163.322 43.2999Z" fill="#8AD0F0"/>
<path fill-rule="evenodd" clip-rule="evenodd" d="M79.2777 96.6139C79.2777 75.2593 61.5416 57.9702 39.6389 57.9702V77.2921C50.5457 77.2921 59.4553 85.9366 59.4553 96.6139H79.2777ZM39.6389 57.9702C17.7302 57.9702 0 75.2594 0 96.6139H19.8164C19.8164 85.9813 28.6846 77.2921 39.6389 77.2921V57.9702Z" fill="#FF7D6A"/>
</svg>
