<svg width="22.000000" height="18.000000" viewBox="0 0 22 18" fill="none" xmlns="http://www.w3.org/2000/svg" xmlns:xlink="http://www.w3.org/1999/xlink">
	<desc>
			Created with Pixso.
	</desc>
	<defs/>
	<path id="Vector" d="M20.5 7.86264C20.4219 7.89914 20.3398 7.92822 20.2549 7.94913C20.1528 7.97467 20.0479 7.98715 19.9424 7.98621L17.0615 7.98621C16.5146 7.98621 15.9902 8.19766 15.604 8.57404C15.2173 8.95038 15 9.46085 15 9.9931C15 10.5254 15.2173 11.0358 15.604 11.4122C15.9902 11.7886 16.5146 12 17.0615 12L20.2549 12C20.52 11.9966 20.7812 11.9331 21.0171 11.8145C21.312 11.6719 21.5605 11.4519 21.7344 11.1793C21.9077 10.9066 22 10.5922 22 10.2713L22 6.72495C22 6.48196 21.9551 6.2435 21.8691 6.02014C21.8115 5.86899 21.7349 5.72479 21.6411 5.59079C21.5698 5.48886 21.4888 5.39285 21.3979 5.3042C21.2788 5.18768 21.146 5.08557 21.0015 5C21.0127 5.09113 21.0176 5.1828 21.0171 5.27451L21.0171 6.02014C21.1602 6.22873 21.2373 6.47394 21.2378 6.72495C21.2388 6.97507 21.1616 7.21957 21.0171 7.42609C20.8867 7.6152 20.708 7.76535 20.5 7.86264ZM20.5 9.43146Q20.4951 9.43243 20.4902 9.43338Q20.2153 9.48868 19.9292 9.48618L19.6284 9.48618Q19.644 9.55963 19.6553 9.63379Q19.6816 9.81146 19.6816 9.9931Q19.6812 10.2523 19.6284 10.5L20.2549 10.5Q20.2935 10.4994 20.3428 10.4745Q20.4321 10.431 20.4692 10.3733Q20.4912 10.3388 20.4976 10.3016Q20.5 10.2866 20.5 10.2712L20.5 9.43146ZM18.0317 10.5C18.1284 10.3492 18.1812 10.1738 18.1816 9.9931C18.1816 9.81366 18.1299 9.63806 18.0327 9.48621C18.0273 9.47772 18.0215 9.46933 18.0156 9.461C17.9077 9.30353 17.7539 9.18088 17.5742 9.10855C17.394 9.03622 17.1963 9.01749 17.0054 9.05472C16.8145 9.09195 16.6396 9.18347 16.502 9.31769C16.3647 9.4519 16.2715 9.62277 16.2339 9.80869C16.1963 9.99457 16.2163 10.1871 16.2915 10.3619C16.3667 10.5368 16.4932 10.686 16.6553 10.7907C16.8174 10.8954 17.0078 10.9509 17.2026 10.9502C17.4624 10.9486 17.7109 10.8471 17.8945 10.6679C17.9468 10.6167 17.9927 10.5603 18.0317 10.5Z" fill="#495867" fill-opacity="1.000000" fill-rule="evenodd"/>
	<path id="Vector" d="M13.8589 9.99741C13.8516 9.61087 13.9204 9.22662 14.0615 8.86716C14.2026 8.50769 14.4136 8.18021 14.6821 7.90378C14.9502 7.62738 15.2705 7.40759 15.624 7.25729C15.9771 7.10696 16.3569 7.02911 16.7407 7.02832L19.6807 7.02832C19.7202 7.02936 19.7593 7.02542 19.7974 7.01654C19.8711 6.99927 19.9404 6.96579 20 6.91855L20 4.94687C20.0005 4.91547 19.999 4.88403 19.9961 4.85278C19.9966 4.82529 19.9951 4.79779 19.9922 4.77048C19.9883 4.72736 19.9844 4.68423 19.9766 4.64111C19.9644 4.55112 19.9463 4.46207 19.9219 4.37457C19.8735 4.19 19.8008 4.01291 19.7051 3.84814C19.7021 3.84329 19.6992 3.83847 19.6963 3.83362C19.5049 3.50754 19.2324 3.23737 18.9058 3.04971C18.585 2.8656 18.2231 2.76718 17.8545 2.76361C17.8477 2.76352 17.8403 2.76349 17.8335 2.76349L1.51709 2.76349C1.51172 2.76349 1.50586 2.7634 1.50049 2.76324C1.10742 2.7507 0.77832 2.30124 0.77832 1.77179C0.775879 1.50967 0.86084 1.2543 1.01953 1.0466C1.07812 0.968414 1.15283 0.904297 1.23926 0.858887C1.3252 0.813446 1.42041 0.787872 1.51709 0.783966L17.6582 0.783966C18.0151 0.784546 18.3604 0.908234 18.6377 1.13443C18.6719 1.16266 18.7051 1.19229 18.7373 1.22318C18.8013 1.28528 18.8594 1.3526 18.9121 1.42426C19.0415 1.60211 19.1338 1.80676 19.1802 2.02554L19.1807 2.0271C19.1821 2.03461 19.1836 2.04202 19.1855 2.04941C19.2051 2.13074 19.25 2.20389 19.314 2.25818C19.3833 2.31738 19.4712 2.35052 19.562 2.35193L19.5635 2.35193C19.6196 2.35263 19.6758 2.34091 19.7271 2.31757C19.7783 2.29422 19.8242 2.2598 19.8608 2.21677C19.8975 2.17371 19.9243 2.12308 19.9395 2.06842C19.9512 2.02682 19.9561 1.98367 19.9536 1.94073C19.9526 1.92725 19.9512 1.91376 19.9487 1.90036C19.8735 1.51431 19.7041 1.15591 19.4585 0.856049C19.3638 0.740326 19.2578 0.633301 19.1411 0.536804C18.7236 0.190216 18.1997 0.000488281 17.6582 0L1.51709 0C1.30566 0.00387573 1.09717 0.0551453 0.907715 0.150055C0.717773 0.244965 0.551758 0.381134 0.42041 0.548767C0.144043 0.894958 -0.00488281 1.32733 0.000488281 1.77179C0.000488281 1.82666 0.00439453 1.88153 0.00830078 1.9364L0.00830078 1.95209C0.00146484 1.97229 -0.000976562 1.99359 0.000488281 2.0148L0.000488281 15.4991C0.000488281 16.8789 0.972656 18 2.1709 18L17.8335 18C19.0273 18 20 16.8789 20 15.4991L20 12.8376L16.855 12.8376C16.0874 12.8484 15.3457 12.5583 14.7871 12.0283C14.228 11.4983 13.895 10.7701 13.8589 9.99741ZM18.5 14.3376L16.855 14.3376Q16.5762 14.3416 16.3013 14.31Q15.7402 14.2455 15.1963 14.0326Q14.8013 13.878 14.4482 13.6562Q14.0781 13.4235 13.7549 13.1168Q13.4478 12.8255 13.2041 12.4881Q12.9478 12.1331 12.7627 11.7271Q12.584 11.3367 12.4839 10.9272Q12.3813 10.5073 12.3608 10.0674L12.3599 10.0473L12.3594 10.0273Q12.3506 9.58066 12.4287 9.14972Q12.5049 8.72656 12.6655 8.31854Q12.8311 7.89655 13.0737 7.52429Q13.3047 7.16907 13.6055 6.85916Q13.9214 6.5336 14.2891 6.28397Q14.6392 6.04593 15.0366 5.87692Q15.4482 5.7019 15.8779 5.61475Q16.2988 5.52924 16.7373 5.52832L18.5 5.52832L18.5 4.96783L18.4941 4.91302L18.4951 4.87772L18.4946 4.87457L18.4897 4.84149Q18.4868 4.81897 18.4819 4.79684Q18.4795 4.78503 18.4761 4.77335Q18.4492 4.67123 18.4053 4.59686Q18.3467 4.49698 18.2637 4.42499Q18.2153 4.38293 18.1587 4.3504Q18.0791 4.30487 17.9937 4.28317Q17.9165 4.26349 17.8335 4.26349L1.51709 4.26349L1.50049 4.26343L1.50049 15.4991Q1.50049 15.729 1.57178 15.9341Q1.5752 15.9445 1.5791 15.9548Q1.64893 16.1454 1.76953 16.2839Q1.93457 16.4742 2.12012 16.4969Q2.14502 16.5 2.1709 16.5L17.8335 16.5Q17.8564 16.5 17.8789 16.4975Q18.0645 16.4767 18.231 16.2846Q18.3511 16.1459 18.4209 15.955Q18.4253 15.9437 18.4292 15.9323Q18.5 15.7279 18.5 15.4991L18.5 14.3376ZM18.5 4.95554L18.5 4.94687Q18.4995 4.95035 18.5 4.95554Z" fill="#495867" fill-opacity="1.000000" fill-rule="evenodd"/>
</svg>
