<svg width="20" height="22" viewBox="0 0 20 22" fill="none" xmlns="http://www.w3.org/2000/svg">
<path d="M15.1062 8.30841V2.26593C15.1062 1.66497 14.8675 1.08862 14.4425 0.663676C14.0176 0.238731 13.4412 0 12.8403 0H2.26593C1.66497 0 1.08862 0.238731 0.663676 0.663676C0.238731 1.08862 0 1.66497 0 2.26593V18.8828C0 19.4837 0.238731 20.0601 0.663676 20.485C1.08862 20.91 1.66497 21.1487 2.26593 21.1487H12.8403C13.4412 21.1487 14.0176 20.91 14.4425 20.485C14.8675 20.0601 15.1062 19.4837 15.1062 18.8828V13.5956C14.7056 13.5956 14.3213 13.7547 14.038 14.038C13.7547 14.3213 13.5956 14.7056 13.5956 15.1062V18.8828C13.5956 19.0831 13.516 19.2752 13.3744 19.4168C13.2327 19.5585 13.0406 19.6381 12.8403 19.6381H2.26593C2.06561 19.6381 1.87349 19.5585 1.73185 19.4168C1.5902 19.2752 1.51062 19.0831 1.51062 18.8828V2.26593C1.51062 2.06561 1.5902 1.87349 1.73185 1.73185C1.87349 1.5902 2.06561 1.51062 2.26593 1.51062H12.8403C13.0406 1.51062 13.2327 1.5902 13.3744 1.73185C13.516 1.87349 13.5956 2.06561 13.5956 2.26593V9.81903C13.9962 9.81903 14.3805 9.65988 14.6638 9.37658C14.947 9.09328 15.1062 8.70905 15.1062 8.30841Z" fill="#70BFE3"/>
<path d="M11.3299 3.77655H3.77679C3.57647 3.77655 3.38436 3.85613 3.24271 3.99778C3.10106 4.13942 3.02148 4.33154 3.02148 4.53186C3.02148 4.73218 3.10106 4.9243 3.24271 5.06595C3.38436 5.20759 3.57647 5.28717 3.77679 5.28717H11.3299C11.5302 5.28717 11.7223 5.20759 11.864 5.06595C12.0056 4.9243 12.0852 4.73218 12.0852 4.53186C12.0852 4.33154 12.0056 4.13942 11.864 3.99778C11.7223 3.85613 11.5302 3.77655 11.3299 3.77655ZM12.0852 7.5531C12.0852 7.35278 12.0056 7.16066 11.864 7.01902C11.7223 6.87737 11.5302 6.79779 11.3299 6.79779H3.77679C3.57647 6.79779 3.38436 6.87737 3.24271 7.01902C3.10106 7.16066 3.02148 7.35278 3.02148 7.5531C3.02148 7.75342 3.10106 7.94554 3.24271 8.08719C3.38436 8.22883 3.57647 8.30841 3.77679 8.30841H11.3299C11.5302 8.30841 11.7223 8.22883 11.864 8.08719C12.0056 7.94554 12.0852 7.75342 12.0852 7.5531ZM3.77679 9.81903C3.57647 9.81903 3.38436 9.89861 3.24271 10.0403C3.10106 10.1819 3.02148 10.374 3.02148 10.5743C3.02148 10.7747 3.10106 10.9668 3.24271 11.1084C3.38436 11.2501 3.57647 11.3297 3.77679 11.3297H6.79803C6.99836 11.3297 7.19047 11.2501 7.33212 11.1084C7.47377 10.9668 7.55334 10.7747 7.55334 10.5743C7.55334 10.374 7.47377 10.1819 7.33212 10.0403C7.19047 9.89861 6.99836 9.81903 6.79803 9.81903H3.77679Z" fill="#70BFE3"/>
<path d="M8.6211 18.1275C8.50875 18.1274 8.39782 18.1023 8.2964 18.0539C8.19499 18.0055 8.10564 17.9352 8.03487 17.8479C7.9641 17.7606 7.91369 17.6587 7.88731 17.5494C7.86094 17.4402 7.85927 17.3265 7.88241 17.2165L8.4504 14.5118C8.48064 14.3687 8.55175 14.2375 8.65509 14.1341L15.7701 7.01986C16.2019 6.60786 16.7757 6.37799 17.3725 6.37799C17.9693 6.37799 18.5431 6.60786 18.9749 7.01986C19.1853 7.23028 19.3523 7.48009 19.4662 7.75503C19.5801 8.02997 19.6387 8.32465 19.6387 8.62225C19.6387 8.91985 19.5801 9.21453 19.4662 9.48948C19.3523 9.76442 19.1853 10.0142 18.9749 10.2246L11.8584 17.3374C11.7552 17.4413 11.6239 17.5127 11.4807 17.5428L8.77594 18.1116C8.72499 18.122 8.67312 18.1273 8.6211 18.1275ZM9.88625 15.0428L9.60225 16.3948L10.952 16.1108L17.9069 9.15512C18.0485 9.01348 18.128 8.8214 18.128 8.62112C18.128 8.42084 18.0485 8.22876 17.9069 8.08712C17.7633 7.94928 17.5719 7.87231 17.3729 7.87231C17.1738 7.87231 16.9825 7.94928 16.8389 8.08712L9.88625 15.0428Z" fill="#70BFE3"/>
</svg>
