<svg width="20.000000" height="20.000000" viewBox="0 0 20 20" fill="none" xmlns="http://www.w3.org/2000/svg" xmlns:xlink="http://www.w3.org/1999/xlink">
	<desc>
			Created with Pixso.
	</desc>
	<defs/>
	<path id="Vector" d="M19 2L16 2L16 1C16 0.734772 15.8945 0.480438 15.707 0.292908C15.5195 0.105347 15.2651 0 15 0L5 0C4.73486 0 4.48047 0.105347 4.29297 0.292908C4.10547 0.480438 4 0.734772 4 1L4 2L1 2C0.734863 2 0.480469 2.10535 0.292969 2.29291C0.105469 2.48044 0 2.73477 0 3L0 6C0 7.06085 0.421387 8.07828 1.17139 8.82843C1.92188 9.57858 2.93896 10 4 10L5.54004 10C6.44434 11.0092 7.66406 11.6823 9 11.91L9 14L8 14C7.20459 14 6.44141 14.3161 5.87891 14.8787C5.31592 15.4413 5 16.2043 5 17L5 19C5 19.2652 5.10547 19.5196 5.29297 19.7071C5.48047 19.8947 5.73486 20 6 20L14 20C14.2651 20 14.5195 19.8947 14.707 19.7071C14.8945 19.5196 15 19.2652 15 19L15 17C15 16.2043 14.6841 15.4413 14.1211 14.8787C13.5586 14.3161 12.7954 14 12 14L11 14L11 11.91C12.3359 11.6823 13.5557 11.0092 14.46 10L16 10C17.061 10 18.0781 9.57858 18.8286 8.82843C19.5786 8.07828 20 7.06085 20 6L20 3C20 2.73477 19.8945 2.48044 19.707 2.29291C19.5195 2.10535 19.2651 2 19 2ZM4 8C3.46973 8 2.96094 7.78928 2.58594 7.41422C2.21094 7.03915 2 6.53043 2 6L2 4L4 4L4 6C4.00244 6.6817 4.12061 7.35806 4.3501 8L4 8ZM12 16C12.2651 16 12.5195 16.1053 12.707 16.2929C12.8945 16.4804 13 16.7348 13 17L13 18L7 18L7 17C7 16.7348 7.10547 16.4804 7.29297 16.2929C7.48047 16.1053 7.73486 16 8 16L12 16ZM14 6C14 7.06085 13.5786 8.07828 12.8286 8.82843C12.0781 9.57858 11.061 10 10 10C8.93896 10 7.92188 9.57858 7.17139 8.82843C6.42139 8.07828 6 7.06085 6 6L6 2L14 2L14 6ZM18 6C18 6.53043 17.7891 7.03915 17.4141 7.41422C17.0391 7.78928 16.5303 8 16 8L15.6499 8C15.8794 7.35806 15.9976 6.6817 16 6L16 4L18 4L18 6Z" fill="#495867" fill-opacity="1.000000" fill-rule="nonzero"/>
</svg>
