<svg width="21.000000" height="21.000000" viewBox="0 0 21 21" fill="none" xmlns="http://www.w3.org/2000/svg" xmlns:xlink="http://www.w3.org/1999/xlink">
	<desc>
			Created with Pixso.
	</desc>
	<defs/>
	<path id="path7" d="M10.5 0C7.71631 0.00317383 5.04736 1.11044 3.0791 3.07889C1.11035 5.0473 0.00292969 7.71619 0 10.5C0 13.3054 1.09277 15.9416 3.07617 17.9236C4.04883 18.9019 5.20557 19.6776 6.47998 20.2057C7.75439 20.7338 9.12061 21.0037 10.5 21C13.2837 20.9968 15.9526 19.8895 17.9209 17.9211C19.8896 15.9526 20.9971 13.2838 21 10.5C20.9971 7.71619 19.8896 5.0473 17.9209 3.07889C15.9526 1.11044 13.2837 0.00317383 10.5 0ZM10.5 1.49701C12.8867 1.49979 15.1753 2.44919 16.8628 4.13696C18.5508 5.82477 19.5 8.1131 19.5029 10.5C19.501 12.7637 18.6421 14.9426 17.0986 16.5988C16.0801 15.3928 14.7534 14.4854 13.2603 13.973C13.7788 13.5526 14.1968 13.022 14.4844 12.4196C14.772 11.8173 14.9214 11.1584 14.9224 10.491C14.9204 9.90082 14.8022 9.31677 14.5742 8.77234C14.3467 8.22787 14.0137 7.73376 13.5942 7.31824C13.1753 6.90271 12.6782 6.57397 12.1318 6.35086C11.5854 6.12772 11.0005 6.01459 10.4102 6.01794C9.82031 6.01971 9.23633 6.13782 8.69238 6.36548C8.14795 6.59314 7.65381 6.9259 7.23828 7.34473C6.82324 7.76355 6.49414 8.26019 6.271 8.80621C6.04736 9.35226 5.93408 9.93698 5.93701 10.5269C5.93701 11.9176 6.58984 13.1467 7.58984 13.967C6.12695 14.4656 4.82227 15.3426 3.80859 16.5089C2.31738 14.8631 1.49316 12.7207 1.49707 10.5C1.5 8.1131 2.44922 5.82477 4.13721 4.13696C5.82471 2.44919 8.11328 1.49979 10.5 1.49701ZM10.4478 7.51495C12.0898 7.51495 13.4238 8.85028 13.4238 10.5269C13.4219 11.2981 13.1206 12.0384 12.5835 12.5919C12.0464 13.1454 11.3154 13.4688 10.5449 13.494C10.5015 13.494 10.4595 13.485 10.416 13.485C10.3789 13.485 10.3428 13.4925 10.3052 13.494C9.53076 13.4637 8.79883 13.1334 8.26367 12.573C7.72803 12.0126 7.43164 11.266 7.43701 10.491C7.43701 8.85028 8.771 7.51495 10.4478 7.51495ZM10.3037 14.988C10.3398 14.9895 10.376 15 10.4116 15L10.4478 15C10.4805 15 10.5073 14.9895 10.5405 14.988C11.585 15.0062 12.6128 15.2501 13.5542 15.7028C14.4956 16.1555 15.3276 16.8063 15.9941 17.6107C14.4248 18.8365 12.4912 19.5026 10.5 19.503C8.46387 19.5071 6.4873 18.8152 4.89844 17.5419C5.56641 16.7567 6.39355 16.1228 7.32568 15.6824C8.25781 15.2421 9.27295 15.0053 10.3037 14.988Z" fill="#495867" fill-opacity="1.000000" fill-rule="nonzero"/>
</svg>
