<svg width="21.000000" height="21.000000" viewBox="0 0 21 21" fill="none" xmlns="http://www.w3.org/2000/svg" xmlns:xlink="http://www.w3.org/1999/xlink">
	<desc>
			Created with Pixso.
	</desc>
	<defs/>
	<path id="Vector" d="M10.5 0C8.42334 0 6.39307 0.615814 4.6665 1.76956C2.93994 2.92331 1.59375 4.5632 0.799316 6.48181C0.00439453 8.40045 -0.203613 10.5117 0.20166 12.5484C0.606934 14.5852 1.60693 16.4562 3.0752 17.9246C4.54395 19.3931 6.41455 20.3931 8.45166 20.7982C10.4883 21.2034 12.5996 20.9955 14.5181 20.2007C16.437 19.406 18.0767 18.0602 19.2305 16.3335C20.3843 14.6068 21 12.5767 21 10.5C20.9966 7.71625 19.8896 5.04742 17.9209 3.07901C15.9526 1.1106 13.2837 0.0032959 10.5 0ZM10.5 19.0909C8.80078 19.0909 7.14014 18.5871 5.72705 17.6431C4.31445 16.6991 3.21338 15.3574 2.56299 13.7876C1.9126 12.2178 1.74268 10.4905 2.07422 8.82401C2.40576 7.15753 3.22363 5.62677 4.42529 4.42532C5.62695 3.22385 7.15771 2.40564 8.82422 2.07416C10.4902 1.74268 12.2178 1.91281 13.7876 2.56305C15.3574 3.21326 16.6992 4.31439 17.6431 5.72714C18.5869 7.13992 19.0908 8.80087 19.0908 10.5C19.0884 12.7777 18.1826 14.9613 16.5718 16.5719C14.9614 18.1825 12.7778 19.0884 10.5 19.0909Z" fill="#495867" fill-opacity="1.000000" fill-rule="nonzero"/>
	<path id="Vector" d="M7.63623 10.5C7.63623 11.5543 6.78125 12.4091 5.72705 12.4091C4.67236 12.4091 3.81787 11.5543 3.81787 10.5C3.81787 9.44562 4.67236 8.59088 5.72705 8.59088C6.78125 8.59088 7.63623 9.44562 7.63623 10.5Z" fill="#495867" fill-opacity="1.000000" fill-rule="evenodd"/>
	<path id="Vector" d="M12.4092 10.5C12.4092 11.5543 11.5542 12.4091 10.5 12.4091C9.44531 12.4091 8.59082 11.5543 8.59082 10.5C8.59082 9.44562 9.44531 8.59088 10.5 8.59088C11.5542 8.59088 12.4092 9.44562 12.4092 10.5Z" fill="#495867" fill-opacity="1.000000" fill-rule="evenodd"/>
	<path id="Vector" d="M17.1816 10.5C17.1816 11.5543 16.3267 12.4091 15.2725 12.4091C14.2178 12.4091 13.3633 11.5543 13.3633 10.5C13.3633 9.44562 14.2178 8.59088 15.2725 8.59088C16.3267 8.59088 17.1816 9.44562 17.1816 10.5Z" fill="#495867" fill-opacity="1.000000" fill-rule="evenodd"/>
</svg>
