<svg width="32.000000" height="32.000000" viewBox="0 0 32 32" fill="none" xmlns="http://www.w3.org/2000/svg" xmlns:xlink="http://www.w3.org/1999/xlink">
	<desc>
			Created with Pixso.
	</desc>
	<defs/>
	<path id="Vector" d="M15.9199 25.6C16.48 25.6 16.9536 25.4064 17.3408 25.0192C17.728 24.632 17.9209 24.1589 17.9199 23.6C17.9199 23.04 17.7271 22.5664 17.3408 22.1792C16.9546 21.792 16.481 21.5989 15.9199 21.6C15.3599 21.6 14.8867 21.7936 14.501 22.1808C14.1147 22.568 13.9209 23.0411 13.9199 23.6C13.9199 24.16 14.1138 24.6336 14.501 25.0208C14.8882 25.408 15.3608 25.6011 15.9199 25.6ZM14.48 19.44L17.4399 19.44C17.4399 18.56 17.54 17.8667 17.7407 17.36C17.9414 16.8533 18.5078 16.16 19.4399 15.28C20.1333 14.5867 20.6802 13.9264 21.0801 13.2992C21.48 12.672 21.6802 11.9189 21.6802 11.04C21.6802 9.54666 21.1333 8.39999 20.04 7.60001C18.9468 6.79999 17.6533 6.39999 16.1602 6.39999C14.6401 6.39999 13.4067 6.79999 12.4609 7.60001C11.5146 8.39999 10.8545 9.35999 10.48 10.48L13.1201 11.52C13.2534 11.04 13.5537 10.52 14.021 9.95999C14.4878 9.39999 15.2012 9.12 16.1602 9.12C17.0132 9.12 17.6533 9.35361 18.0801 9.8208C18.5068 10.288 18.7202 10.8011 18.7202 11.36C18.7202 11.8933 18.5601 12.3936 18.2402 12.8608C17.9199 13.328 17.52 13.7611 17.04 14.16C15.8667 15.2 15.1465 15.9867 14.8799 16.52C14.6133 17.0533 14.48 18.0267 14.48 19.44ZM16 32C13.7866 32 11.7065 31.5803 9.75977 30.7408C7.81348 29.9013 6.12012 28.7611 4.68018 27.32C3.24023 25.88 2.1001 24.1867 1.26074 22.24C0.421387 20.2933 0.000976562 18.2133 0 16C0 13.7867 0.42041 11.7067 1.26074 9.76001C2.10156 7.81332 3.24121 6.12 4.68018 4.67999C6.12012 3.23999 7.81348 2.10028 9.75977 1.2608C11.7065 0.421326 13.7866 0.00106812 16 0C18.2134 0 20.2935 0.420258 22.2402 1.2608C24.1865 2.10132 25.8799 3.24106 27.3198 4.67999C28.7598 6.12 29.9004 7.81332 30.7407 9.76001C31.5815 11.7067 32.001 13.7867 32 16C32 18.2133 31.5796 20.2933 30.7393 22.24C29.8984 24.1867 28.7588 25.88 27.3198 27.32C25.8799 28.76 24.1865 29.9003 22.2402 30.7408C20.2935 31.5813 18.2134 32.0011 16 32ZM16 28.8C19.5732 28.8 22.6001 27.56 25.0801 25.08C27.5601 22.6 28.7998 19.5733 28.7998 16C28.7998 12.4267 27.5601 9.39999 25.0801 6.92001C22.6001 4.44 19.5732 3.20001 16 3.20001C12.4268 3.20001 9.3999 4.44 6.91992 6.92001C4.43994 9.39999 3.2002 12.4267 3.2002 16C3.2002 19.5733 4.43994 22.6 6.91992 25.08C9.3999 27.56 12.4268 28.8 16 28.8Z" fill="#8AD0F0" fill-opacity="1.000000" fill-rule="nonzero"/>
</svg>
