<svg width="181" height="34" viewBox="0 0 181 34" fill="none" xmlns="http://www.w3.org/2000/svg">
<path d="M8.84498 27.2995C7.27434 27.2995 5.92333 26.9667 4.79194 26.3012C3.6672 25.629 2.80202 24.6973 2.19639 23.506C1.59742 22.3147 1.29794 20.9437 1.29794 19.3931C1.29794 17.8224 1.60075 16.4448 2.20638 15.2602C2.81866 14.0689 3.68717 13.1405 4.8119 12.4749C5.93664 11.8028 7.27434 11.4667 8.82501 11.4667C10.1627 11.4667 11.334 11.7096 12.339 12.1954C13.3439 12.6813 14.1392 13.3634 14.7249 14.2419C15.3105 15.1204 15.6333 16.152 15.6932 17.3366H11.6801C11.567 16.5712 11.2675 15.9556 10.7817 15.4898C10.3025 15.0172 9.67356 14.781 8.89489 14.781C8.23602 14.781 7.66035 14.9607 7.16786 15.3201C6.68203 15.6728 6.30268 16.1886 6.02981 16.8674C5.75695 17.5462 5.62052 18.3682 5.62052 19.3332C5.62052 20.3115 5.75362 21.1434 6.01983 21.8289C6.29269 22.5144 6.67537 23.0368 7.16786 23.3962C7.66035 23.7556 8.23602 23.9353 8.89489 23.9353C9.38073 23.9353 9.81664 23.8354 10.2026 23.6358C10.5953 23.4361 10.9181 23.1466 11.171 22.7673C11.4305 22.3813 11.6002 21.9187 11.6801 21.3796H15.6932C15.6267 22.551 15.3072 23.5825 14.7349 24.4743C14.1692 25.3595 13.3872 26.0516 12.3889 26.5508C11.3906 27.0499 10.2093 27.2995 8.84498 27.2995ZM18.416 27V11.6663H22.539V14.3417H22.6987C22.9782 13.39 23.4474 12.6713 24.1063 12.1854C24.7651 11.6929 25.5238 11.4467 26.3824 11.4467C26.5953 11.4467 26.8249 11.46 27.0712 11.4866C27.3174 11.5133 27.5337 11.5499 27.7201 11.5964V15.37C27.5204 15.3101 27.2442 15.2568 26.8915 15.2102C26.5388 15.1637 26.216 15.1404 25.9232 15.1404C25.2976 15.1404 24.7385 15.2768 24.246 15.5497C23.7602 15.8159 23.3742 16.1886 23.088 16.6677C22.8085 17.1469 22.6687 17.6993 22.6687 18.3249V27H18.416ZM36.193 27.2995C34.6157 27.2995 33.2581 26.98 32.12 26.3411C30.9886 25.6956 30.1168 24.7838 29.5045 23.6058C28.8922 22.4212 28.5861 21.0203 28.5861 19.403C28.5861 17.8258 28.8922 16.4415 29.5045 15.2502C30.1168 14.0589 30.9786 13.1305 32.0901 12.465C33.2081 11.7994 34.5192 11.4667 36.0233 11.4667C37.0349 11.4667 37.9766 11.6297 38.8485 11.9558C39.727 12.2753 40.4923 12.7578 41.1445 13.4033C41.8034 14.0489 42.3158 14.8608 42.6819 15.8392C43.0479 16.8108 43.2309 17.9489 43.2309 19.2533V20.4213H30.2832V17.7858H39.2278C39.2278 17.1735 39.0947 16.6311 38.8285 16.1586C38.5623 15.6861 38.1929 15.3167 37.7204 15.0505C37.2545 14.7777 36.7121 14.6412 36.0932 14.6412C35.4476 14.6412 34.8753 14.791 34.3761 15.0904C33.8837 15.3833 33.4977 15.7793 33.2181 16.2784C32.9386 16.7709 32.7955 17.32 32.7889 17.9256V20.4313C32.7889 21.19 32.9286 21.8455 33.2081 22.3979C33.4943 22.9503 33.897 23.3762 34.4161 23.6757C34.9352 23.9752 35.5508 24.1249 36.2629 24.1249C36.7354 24.1249 37.168 24.0584 37.5607 23.9253C37.9533 23.7922 38.2894 23.5925 38.5689 23.3263C38.8485 23.0601 39.0614 22.734 39.2078 22.348L43.1411 22.6075C42.9414 23.5526 42.5321 24.3778 41.9132 25.0833C41.3009 25.7821 40.5089 26.3278 39.5373 26.7205C38.5723 27.1065 37.4575 27.2995 36.193 27.2995ZM50.3787 27.2895C49.4003 27.2895 48.5285 27.1198 47.7632 26.7804C46.9978 26.4343 46.3922 25.9252 45.9463 25.253C45.507 24.5742 45.2874 23.7289 45.2874 22.7174C45.2874 21.8655 45.4438 21.15 45.7566 20.571C46.0694 19.992 46.4953 19.5262 47.0344 19.1734C47.5735 18.8207 48.1858 18.5545 48.8713 18.3748C49.5634 18.1951 50.2888 18.0687 51.0475 17.9955C51.9393 17.9023 52.6581 17.8158 53.2038 17.7359C53.7495 17.6494 54.1455 17.5229 54.3918 17.3566C54.638 17.1902 54.7611 16.9439 54.7611 16.6178V16.5579C54.7611 15.9257 54.5615 15.4365 54.1622 15.0904C53.7695 14.7444 53.2105 14.5713 52.4851 14.5713C51.7197 14.5713 51.1107 14.741 50.6582 15.0805C50.2056 15.4132 49.9061 15.8325 49.7597 16.3383L45.8265 16.0189C46.0261 15.0871 46.4188 14.2818 47.0045 13.603C47.5901 12.9175 48.3455 12.3917 49.2706 12.0257C50.2023 11.653 51.2805 11.4667 52.505 11.4667C53.3569 11.4667 54.1722 11.5665 54.9508 11.7662C55.7361 11.9658 56.4316 12.2753 57.0372 12.6946C57.6495 13.1138 58.132 13.6529 58.4848 14.3118C58.8375 14.964 59.0138 15.746 59.0138 16.6578V27H54.9808V24.8737H54.861C54.6147 25.3528 54.2853 25.7754 53.8727 26.1415C53.46 26.5009 52.9642 26.7837 52.3852 26.99C51.8062 27.1897 51.1374 27.2895 50.3787 27.2895ZM51.5966 24.3545C52.2222 24.3545 52.7746 24.2314 53.2537 23.9852C53.7329 23.7323 54.1089 23.3929 54.3818 22.9669C54.6547 22.541 54.7911 22.0585 54.7911 21.5194V19.8922C54.658 19.9787 54.475 20.0586 54.242 20.1318C54.0158 20.1983 53.7595 20.2616 53.4734 20.3215C53.1872 20.3747 52.901 20.4246 52.6148 20.4712C52.3287 20.5111 52.0691 20.5477 51.8362 20.581C51.337 20.6542 50.9011 20.7707 50.5284 20.9304C50.1557 21.0901 49.8662 21.3064 49.6599 21.5793C49.4536 21.8455 49.3504 22.1783 49.3504 22.5776C49.3504 23.1566 49.5601 23.5992 49.9794 23.9053C50.4053 24.2048 50.9444 24.3545 51.5966 24.3545ZM70.4692 11.6663V14.8608H61.235V11.6663H70.4692ZM63.3314 7.99263H67.5841V22.2881C67.5841 22.6807 67.644 22.9869 67.7638 23.2065C67.8836 23.4195 68.05 23.5692 68.263 23.6557C68.4826 23.7423 68.7355 23.7855 69.0217 23.7855C69.2213 23.7855 69.421 23.7689 69.6206 23.7356C69.8203 23.6957 69.9734 23.6657 70.0798 23.6458L70.7487 26.8103C70.5357 26.8769 70.2362 26.9534 69.8502 27.0399C69.4642 27.1331 68.995 27.1897 68.4427 27.2096C67.4177 27.2496 66.5193 27.1131 65.7473 26.8003C64.9819 26.4875 64.3863 26.0017 63.9604 25.3428C63.5344 24.684 63.3248 23.8521 63.3314 22.8471V7.99263ZM80.0028 27.2995C78.4521 27.2995 77.1111 26.9701 75.9797 26.3112C74.855 25.6457 73.9865 24.7206 73.3742 23.5359C72.7619 22.3447 72.4558 20.9637 72.4558 19.3931C72.4558 17.8091 72.7619 16.4248 73.3742 15.2402C73.9865 14.0489 74.855 13.1238 75.9797 12.465C77.1111 11.7994 78.4521 11.4667 80.0028 11.4667C81.5535 11.4667 82.8912 11.7994 84.0159 12.465C85.1473 13.1238 86.0191 14.0489 86.6314 15.2402C87.2437 16.4248 87.5499 17.8091 87.5499 19.3931C87.5499 20.9637 87.2437 22.3447 86.6314 23.5359C86.0191 24.7206 85.1473 25.6457 84.0159 26.3112C82.8912 26.9701 81.5535 27.2995 80.0028 27.2995ZM80.0228 24.0051C80.7282 24.0051 81.3172 23.8055 81.7897 23.4062C82.2623 23.0002 82.6183 22.4478 82.8579 21.749C83.1042 21.0502 83.2273 20.2549 83.2273 19.3631C83.2273 18.4713 83.1042 17.676 82.8579 16.9772C82.6183 16.2784 82.2623 15.726 81.7897 15.3201C81.3172 14.9141 80.7282 14.7111 80.0228 14.7111C79.3107 14.7111 78.7117 14.9141 78.2259 15.3201C77.7467 15.726 77.384 16.2784 77.1377 16.9772C76.8981 17.676 76.7783 18.4713 76.7783 19.3631C76.7783 20.2549 76.8981 21.0502 77.1377 21.749C77.384 22.4478 77.7467 23.0002 78.2259 23.4062C78.7117 23.8055 79.3107 24.0051 80.0228 24.0051ZM90.3151 27V11.6663H94.438V14.3417H94.5977C94.8773 13.39 95.3465 12.6713 96.0053 12.1854C96.6642 11.6929 97.4229 11.4467 98.2814 11.4467C98.4944 11.4467 98.724 11.46 98.9702 11.4866C99.2165 11.5133 99.4328 11.5499 99.6191 11.5964V15.37C99.4195 15.3101 99.1433 15.2568 98.7905 15.2102C98.4378 15.1637 98.115 15.1404 97.8222 15.1404C97.1966 15.1404 96.6376 15.2768 96.1451 15.5497C95.6593 15.8159 95.2733 16.1886 94.9871 16.6677C94.7076 17.1469 94.5678 17.6993 94.5678 18.3249V27H90.3151ZM105.09 27L100.917 11.6663H105.22L107.595 21.9686H107.735L110.211 11.6663H114.434L116.949 21.9087H117.079L119.415 11.6663H123.708L119.545 27H115.043L112.407 17.3566H112.217L109.582 27H105.09ZM132.52 27.2995C130.969 27.2995 129.628 26.9701 128.497 26.3112C127.372 25.6457 126.504 24.7206 125.892 23.5359C125.279 22.3447 124.973 20.9637 124.973 19.3931C124.973 17.8091 125.279 16.4248 125.892 15.2402C126.504 14.0489 127.372 13.1238 128.497 12.465C129.628 11.7994 130.969 11.4667 132.52 11.4667C134.071 11.4667 135.409 11.7994 136.533 12.465C137.665 13.1238 138.536 14.0489 139.149 15.2402C139.761 16.4248 140.067 17.8091 140.067 19.3931C140.067 20.9637 139.761 22.3447 139.149 23.5359C138.536 24.7206 137.665 25.6457 136.533 26.3112C135.409 26.9701 134.071 27.2995 132.52 27.2995ZM132.54 24.0051C133.246 24.0051 133.835 23.8055 134.307 23.4062C134.78 23.0002 135.136 22.4478 135.375 21.749C135.621 21.0502 135.745 20.2549 135.745 19.3631C135.745 18.4713 135.621 17.676 135.375 16.9772C135.136 16.2784 134.78 15.726 134.307 15.3201C133.835 14.9141 133.246 14.7111 132.54 14.7111C131.828 14.7111 131.229 14.9141 130.743 15.3201C130.264 15.726 129.901 16.2784 129.655 16.9772C129.415 17.676 129.296 18.4713 129.296 19.3631C129.296 20.2549 129.415 21.0502 129.655 21.749C129.901 22.4478 130.264 23.0002 130.743 23.4062C131.229 23.8055 131.828 24.0051 132.54 24.0051ZM142.832 27V11.6663H146.955V14.3417H147.115C147.395 13.39 147.864 12.6713 148.523 12.1854C149.182 11.6929 149.94 11.4467 150.799 11.4467C151.012 11.4467 151.241 11.46 151.488 11.4866C151.734 11.5133 151.95 11.5499 152.136 11.5964V15.37C151.937 15.3101 151.661 15.2568 151.308 15.2102C150.955 15.1637 150.632 15.1404 150.34 15.1404C149.714 15.1404 149.155 15.2768 148.662 15.5497C148.177 15.8159 147.791 16.1886 147.504 16.6677C147.225 17.1469 147.085 17.6993 147.085 18.3249V27H142.832ZM158.189 22.5876L158.199 17.4863H158.817L163.729 11.6663H168.611L162.012 19.3731H161.004L158.189 22.5876ZM154.335 27V6.5551H158.588V27H154.335ZM163.919 27L159.406 20.3215L162.242 17.3166L168.9 27H163.919Z" fill="#495867"/>
<circle cx="176.098" cy="22.7506" r="4.01596" fill="#8AD0F0"/>
</svg>
