<svg width="164" height="48" viewBox="0 0 164 48" fill="none" xmlns="http://www.w3.org/2000/svg">
<path d="M163.672 -2.7L146.09 -13.3695L150.78 -33.0328L130.607 -28.4602L119.664 -45.6L108.722 -28.4602L88.5485 -33.0328L93.2382 -13.3695L75.6565 -2.7L93.2382 7.9695L88.5485 27.6328L108.722 23.0602L119.664 40.2L130.607 23.0602L150.78 27.6328L146.09 7.9695L163.672 -2.7Z" fill="#8AD0F0"/>
<path fill-rule="evenodd" clip-rule="evenodd" d="M79.6269 50.6142C79.6269 29.2596 61.8907 11.9705 39.988 11.9705V31.2923C50.8948 31.2923 59.8045 39.9369 59.8045 50.6142H79.6269ZM39.988 11.9705C18.0794 11.9705 0.349121 29.2597 0.349121 50.6142H20.1656C20.1656 39.9816 29.0337 31.2923 39.988 31.2923V11.9705Z" fill="#E58983"/>
</svg>
