<svg width="99" height="19" viewBox="0 0 99 19" fill="none" xmlns="http://www.w3.org/2000/svg">
<path d="M18.5625 0.442749H0V19.0052H18.5625V0.442749Z" fill="#00B67A"/>
<path d="M38.6719 0.442749H20.1094V19.0052H38.6719V0.442749Z" fill="#00B67A"/>
<path d="M58.7812 0.442749H40.2188V19.0052H58.7812V0.442749Z" fill="#00B67A"/>
<path d="M78.8906 0.442749H60.3281V19.0052H78.8906V0.442749Z" fill="#00B67A"/>
<path d="M99 0.442749H80.4375V19.0052H99V0.442749Z" fill="#00B67A"/>
<path d="M9.2813 12.9531L12.1043 12.2377L13.2838 15.8729L9.2813 12.9531ZM15.7782 8.25449H10.8088L9.2813 3.5752L7.75376 8.25449H2.78442L6.8063 11.1549L5.27876 15.8342L9.30063 12.9338L11.7756 11.1549L15.7782 8.25449Z" fill="white"/>
<path d="M29.3907 12.9531L32.2137 12.2377L33.3932 15.8729L29.3907 12.9531ZM35.8875 8.25449H30.9182L29.3907 3.5752L27.8631 8.25449H22.8938L26.9157 11.1549L25.3881 15.8342L29.41 12.9338L31.885 11.1549L35.8875 8.25449Z" fill="white"/>
<path d="M49.5001 12.9531L52.3231 12.2377L53.5026 15.8729L49.5001 12.9531ZM55.9969 8.25449H51.0276L49.5001 3.5752L47.9725 8.25449H43.0032L47.025 11.1549L45.4975 15.8342L49.5194 12.9338L51.9944 11.1549L55.9969 8.25449Z" fill="white"/>
<path d="M69.6094 12.9531L72.4325 12.2377L73.612 15.8729L69.6094 12.9531ZM76.1063 8.25449H71.137L69.6094 3.5752L68.0819 8.25449H63.1125L67.1344 11.1549L65.6069 15.8342L69.6288 12.9338L72.1038 11.1549L76.1063 8.25449Z" fill="white"/>
<path d="M89.7188 12.9531L92.5418 12.2377L93.7213 15.8729L89.7188 12.9531ZM96.2157 8.25449H91.2463L89.7188 3.5752L88.1913 8.25449H83.2219L87.2438 11.1549L85.7163 15.8342L89.7381 12.9338L92.2131 11.1549L96.2157 8.25449Z" fill="white"/>
</svg>
