<svg width="15.229492" height="14.058174" viewBox="0 0 15.2295 14.0582" fill="none" xmlns="http://www.w3.org/2000/svg" xmlns:xlink="http://www.w3.org/1999/xlink">
	<desc>
			Created with Pixso.
	</desc>
	<defs/>
	<path id="Vector" d="M14.8491 6.40361L11.7847 8.96563L12.7026 12.78C12.7515 12.9794 12.7373 13.1881 12.6631 13.38C12.5884 13.5719 12.4565 13.7385 12.2837 13.8589C12.1108 13.9794 11.9048 14.0483 11.6914 14.0572C11.4775 14.066 11.2661 14.0144 11.083 13.9087L7.61035 11.8909L4.14551 13.9087C3.9624 14.0144 3.75049 14.066 3.53711 14.0572C3.32373 14.0483 3.11768 13.9794 2.94482 13.8589C2.77197 13.7385 2.64014 13.5719 2.56543 13.38C2.49072 13.1881 2.47705 12.9794 2.52539 12.78L3.44189 8.96954L0.376953 6.40361C0.214844 6.26967 0.0976562 6.09285 0.0400391 5.89534C-0.0175781 5.69783 -0.0131836 5.48841 0.0532227 5.29334C0.119141 5.09828 0.244141 4.92626 0.411621 4.79884C0.57959 4.67143 0.782715 4.59431 0.996094 4.57713L5.03613 4.24191L6.61279 0.63842C6.69531 0.449341 6.83447 0.287827 7.01221 0.174225C7.19043 0.0606155 7.39941 0 7.61328 0C7.82715 0 8.03613 0.0606155 8.21387 0.174225C8.39209 0.287827 8.53076 0.449341 8.61328 0.63842L10.1948 4.24191L14.2334 4.57713C14.4468 4.59431 14.6504 4.67143 14.8179 4.79884C14.9858 4.92626 15.1104 5.09828 15.1768 5.29334C15.2427 5.48841 15.2471 5.69783 15.1895 5.89534C15.1318 6.09285 15.0146 6.26967 14.8525 6.40361L14.8491 6.40361Z" fill="#E58983" fill-opacity="1.000000" fill-rule="nonzero"/>
</svg>
