<svg width="280" height="155" viewBox="0 0 280 155" fill="none" xmlns="http://www.w3.org/2000/svg">
<path d="M0.5 10C0.5 4.75329 4.7533 0.5 10 0.5H270C275.247 0.5 279.5 4.75329 279.5 10V145C279.5 150.247 275.247 154.5 270 154.5H10C4.75329 154.5 0.5 150.247 0.5 145V10Z" fill="white" stroke="#F0C9C6"/>
<path d="M28 36.5H252C253.933 36.5 255.5 38.067 255.5 40V62C255.5 63.933 253.933 65.5 252 65.5H28C26.067 65.5 24.5 63.933 24.5 62V40C24.5 38.067 26.067 36.5 28 36.5Z" stroke="#F5F5F5"/>
<path d="M51.25 44.813L43 52.374L34.75 44.811" stroke="#9E9E9E" stroke-width="1.2" stroke-linecap="round" stroke-linejoin="round"/>
<path d="M41.496 51L34.965 56.99M51.035 56.99L44.504 51M34.75 44.813H51.25V56.5C51.2501 56.5904 51.2324 56.6799 51.1979 56.7635C51.1634 56.847 51.1127 56.9229 51.0488 56.9868C50.9849 57.0507 50.909 57.1014 50.8254 57.1359C50.7419 57.1704 50.6524 57.1881 50.562 57.188H35.438C35.3476 57.1881 35.2581 57.1704 35.1746 57.1359C35.091 57.1014 35.0151 57.0507 34.9512 56.9868C34.8873 56.9229 34.8366 56.847 34.8021 56.7635C34.7676 56.6799 34.7499 56.5904 34.75 56.5V44.813Z" stroke="#9E9E9E" stroke-width="1.2" stroke-linecap="round" stroke-linejoin="round"/>
<path d="M65.368 57.4001C65.064 57.4001 64.768 57.3481 64.48 57.2441C64.2039 57.155 63.9502 57.0077 63.736 56.8121L64.228 55.9481C64.388 56.1001 64.564 56.2161 64.756 56.2961C64.948 56.3761 65.152 56.4161 65.368 56.4161C65.648 56.4161 65.88 56.3441 66.064 56.2001C66.248 56.0561 66.42 55.8001 66.58 55.4321L66.976 54.5561L67.096 54.4121L69.592 48.6401H70.72L67.636 55.6361C67.452 56.0841 67.244 56.4361 67.012 56.6921C66.8122 56.9306 66.5567 57.1161 66.268 57.2321C65.9819 57.3467 65.6761 57.4038 65.368 57.4001ZM66.88 55.2041L63.976 48.6401H65.176L67.648 54.3041L66.88 55.2041ZM74.343 55.0721C73.703 55.0721 73.135 54.9321 72.639 54.6521C72.1511 54.38 71.745 53.9822 71.463 53.5001C71.171 52.9889 71.0218 52.4087 71.031 51.8201C71.031 51.1881 71.175 50.6281 71.463 50.1401C71.751 49.6521 72.143 49.2721 72.639 49.0001C73.135 48.7201 73.703 48.5801 74.343 48.5801C74.975 48.5801 75.539 48.7201 76.035 49.0001C76.539 49.2721 76.931 49.6521 77.211 50.1401C77.499 50.6201 77.643 51.1801 77.643 51.8201C77.643 52.4521 77.499 53.0121 77.211 53.5001C76.931 53.9881 76.539 54.3721 76.035 54.6521C75.539 54.9321 74.975 55.0721 74.343 55.0721ZM74.343 54.0641C74.725 54.0707 75.102 53.9755 75.435 53.7881C75.763 53.6041 76.019 53.3441 76.203 53.0081C76.3924 52.6412 76.4873 52.2329 76.479 51.8201C76.479 51.3641 76.387 50.9721 76.203 50.6441C76.0268 50.316 75.7602 50.0453 75.435 49.8641C75.102 49.6767 74.725 49.5814 74.343 49.5881C73.9609 49.5814 73.584 49.6767 73.251 49.8641C72.931 50.0481 72.675 50.3081 72.483 50.6441C72.291 50.9721 72.195 51.3641 72.195 51.8201C72.195 52.2681 72.291 52.6641 72.483 53.0081C72.675 53.3441 72.931 53.6041 73.251 53.7881C73.571 53.9721 73.935 54.0641 74.343 54.0641ZM81.913 55.0721C81.369 55.0721 80.888 54.9721 80.473 54.7721C80.0669 54.5739 79.7317 54.2554 79.513 53.8601C79.288 53.4441 79.176 52.9241 79.176 52.3001V48.6401H80.329V52.1681C80.329 52.7921 80.477 53.2601 80.773 53.5721C81.076 53.8841 81.501 54.0401 82.045 54.0401C82.445 54.0401 82.793 53.9601 83.088 53.8001C83.3825 53.6335 83.6207 53.3828 83.772 53.0801C83.932 52.7601 84.012 52.3761 84.012 51.9281V48.6401H85.165V55.0001H84.072V53.2841L84.252 53.7401C84.045 54.1641 83.732 54.4921 83.317 54.7241C82.887 54.9596 82.4032 55.0795 81.913 55.0721ZM87.357 55.0001V48.6401H88.461V50.3681L88.353 49.9361C88.529 49.4961 88.825 49.1601 89.241 48.9281C89.657 48.6961 90.169 48.5801 90.777 48.5801V49.6961C90.7294 49.6881 90.6812 49.6841 90.633 49.6841H90.513C89.897 49.6841 89.409 49.8681 89.049 50.2361C88.689 50.6041 88.509 51.1361 88.509 51.8321V55.0001H87.357ZM94.97 55.0721C94.29 55.0721 93.69 54.9321 93.17 54.6521C92.6719 54.3854 92.2567 53.9869 91.97 53.5001C91.69 53.0121 91.55 52.4521 91.55 51.8201C91.55 51.1881 91.686 50.6281 91.958 50.1401C92.2268 49.6632 92.6211 49.2689 93.098 49.0001C93.599 48.7167 94.1664 48.5717 94.742 48.5801C95.358 48.5801 95.902 48.7161 96.374 48.9881C96.846 49.2601 97.214 49.6441 97.478 50.1401C97.75 50.6281 97.886 51.2001 97.886 51.8561C97.886 51.9041 97.882 51.9601 97.874 52.0241C97.874 52.0881 97.87 52.1481 97.862 52.2041H92.45V51.3761H97.262L96.794 51.6641C96.8085 51.2841 96.7215 50.9072 96.542 50.5721C96.3734 50.2597 96.1196 50.0016 95.81 49.8281C95.4864 49.6389 95.1167 49.5433 94.742 49.5521C94.342 49.5521 93.986 49.6441 93.674 49.8281C93.362 50.004 93.1077 50.2666 92.942 50.5841C92.766 50.9041 92.678 51.2721 92.678 51.6881V51.8801C92.678 52.3041 92.774 52.6841 92.966 53.0201C93.166 53.3481 93.442 53.6041 93.794 53.7881C94.146 53.9721 94.55 54.0641 95.006 54.0641C95.382 54.0641 95.722 54.0001 96.026 53.8721C96.338 53.7441 96.61 53.5521 96.842 53.2961L97.478 54.0401C97.1852 54.3795 96.8147 54.643 96.398 54.8081C95.974 54.9841 95.498 55.0721 94.97 55.0721ZM107.442 48.5801C107.954 48.5801 108.406 48.6801 108.798 48.8801C109.19 49.0801 109.494 49.3841 109.71 49.7921C109.934 50.2001 110.046 50.7161 110.046 51.3401V55.0001H108.894V51.4721C108.894 50.8561 108.75 50.3921 108.462 50.0801C108.174 49.7681 107.77 49.6121 107.25 49.6121C106.866 49.6121 106.53 49.6921 106.242 49.8521C105.954 50.0121 105.73 50.2481 105.57 50.5601C105.418 50.8721 105.342 51.2601 105.342 51.7241V55.0001H104.19V51.4721C104.19 50.8561 104.046 50.3921 103.758 50.0801C103.478 49.7681 103.074 49.6121 102.546 49.6121C102.17 49.6121 101.838 49.6921 101.55 49.8521C101.262 50.0121 101.038 50.2481 100.878 50.5601C100.718 50.8721 100.638 51.2601 100.638 51.7241V55.0001H99.486V48.6401H100.59V50.3321L100.41 49.9001C100.61 49.4841 100.918 49.1601 101.334 48.9281C101.75 48.6961 102.234 48.5801 102.786 48.5801C103.394 48.5801 103.918 48.7321 104.358 49.0361C104.798 49.3321 105.086 49.7841 105.222 50.3921L104.754 50.2001C104.946 49.7121 105.282 49.3201 105.762 49.0241C106.242 48.7281 106.802 48.5801 107.442 48.5801ZM116.113 55.0001V53.6561L116.053 53.4041V51.1121C116.053 50.6241 115.909 50.2481 115.621 49.9841C115.341 49.7121 114.917 49.5761 114.349 49.5761C113.973 49.5761 113.605 49.6401 113.245 49.7681C112.913 49.873 112.603 50.0399 112.333 50.2601L111.853 49.3961C112.181 49.1321 112.573 48.9321 113.029 48.7961C113.499 48.6511 113.989 48.5783 114.481 48.5801C115.353 48.5801 116.025 48.7921 116.497 49.2161C116.969 49.6401 117.205 50.2881 117.205 51.1601V55.0001H116.113ZM114.025 55.0721C113.553 55.0721 113.137 54.9921 112.777 54.8321C112.449 54.6918 112.167 54.4633 111.961 54.1721C111.769 53.8845 111.669 53.5457 111.673 53.2001C111.673 52.8561 111.753 52.5441 111.913 52.2641C112.081 51.9841 112.349 51.7601 112.717 51.5921C113.093 51.4241 113.597 51.3401 114.229 51.3401H116.245V52.1681H114.277C113.701 52.1681 113.313 52.2641 113.113 52.4561C113.017 52.5445 112.941 52.6522 112.889 52.7721C112.837 52.892 112.811 53.0215 112.813 53.1521C112.809 53.2987 112.841 53.4441 112.906 53.5757C112.971 53.7073 113.067 53.8214 113.185 53.9081C113.433 54.0921 113.777 54.1841 114.217 54.1841C114.649 54.1841 115.025 54.0881 115.345 53.8961C115.671 53.7064 115.921 53.4095 116.053 53.0561L116.281 53.8481C116.123 54.2308 115.84 54.5482 115.477 54.7481C115.093 54.9641 114.609 55.0721 114.025 55.0721ZM119.337 55.0001V48.6401H120.489V55.0001H119.337ZM119.913 47.4161C119.809 47.4189 119.706 47.4012 119.609 47.3642C119.513 47.3271 119.424 47.2713 119.349 47.2001C119.279 47.1315 119.223 47.0492 119.186 46.9584C119.149 46.8676 119.131 46.7702 119.133 46.6721C119.133 46.4561 119.205 46.2761 119.349 46.1321C119.424 46.0608 119.513 46.005 119.609 45.968C119.706 45.9309 119.809 45.9133 119.913 45.9161C120.137 45.9161 120.321 45.9881 120.465 46.1321C120.539 46.196 120.597 46.2754 120.637 46.3646C120.676 46.4538 120.695 46.5506 120.693 46.6481C120.693 46.8641 120.621 47.0481 120.477 47.2001C120.403 47.2725 120.314 47.3291 120.217 47.3662C120.12 47.4034 120.017 47.4203 119.913 47.4161ZM122.69 55.0001V46.0961H123.842V55.0001H122.69ZM131.141 57.4241C130.309 57.4241 129.549 57.2881 128.861 57.0161C128.198 56.7601 127.594 56.3723 127.085 55.8761C126.587 55.3849 126.195 54.7968 125.933 54.1481C125.656 53.4494 125.517 52.7036 125.525 51.9521C125.525 51.1601 125.661 50.4321 125.933 49.7681C126.195 49.1193 126.587 48.5312 127.085 48.0401C127.601 47.5444 128.214 47.1604 128.885 46.9121C129.581 46.6481 130.349 46.5161 131.189 46.5161C132.013 46.5161 132.765 46.6441 133.445 46.9001C134.125 47.1561 134.713 47.5201 135.209 47.9921C135.713 48.4561 136.101 49.0121 136.373 49.6601C136.645 50.3001 136.781 51.0081 136.781 51.7841C136.781 52.4641 136.697 53.0481 136.529 53.5361C136.361 54.0241 136.117 54.4041 135.797 54.6761C135.485 54.9401 135.101 55.0721 134.645 55.0721C134.197 55.0721 133.837 54.9361 133.565 54.6641C133.301 54.3921 133.169 54.0041 133.169 53.5001V52.6841L133.229 51.9521L133.121 50.5721V48.9761H134.165V53.2961C134.165 53.6161 134.229 53.8401 134.357 53.9681C134.493 54.0961 134.657 54.1601 134.849 54.1601C134.963 54.1603 135.076 54.1358 135.179 54.0881C135.283 54.0405 135.375 53.9708 135.449 53.8841C135.625 53.7001 135.753 53.4321 135.833 53.0801C135.921 52.7201 135.965 52.2921 135.965 51.7961C135.965 51.1241 135.849 50.5161 135.617 49.9721C135.399 49.4289 135.063 48.9411 134.633 48.5441C134.198 48.1376 133.683 47.8269 133.121 47.6321C132.545 47.4161 131.901 47.3081 131.189 47.3081C130.477 47.3081 129.825 47.4241 129.233 47.6561C128.668 47.868 128.153 48.1949 127.721 48.6161C127.293 49.0293 126.958 49.5282 126.737 50.0801C126.508 50.6772 126.394 51.3124 126.401 51.9521C126.401 52.6401 126.513 53.2721 126.737 53.8481C126.949 54.3986 127.277 54.8977 127.697 55.3121C128.121 55.7281 128.621 56.0481 129.197 56.2721C129.817 56.5106 130.477 56.6287 131.141 56.6201C131.509 56.6201 131.897 56.5761 132.305 56.4881C132.713 56.4081 133.097 56.2761 133.457 56.0921L133.721 56.8601C133.325 57.0536 132.905 57.1948 132.473 57.2801C132.035 57.3733 131.589 57.4215 131.141 57.4241ZM130.925 55.0721C130.357 55.0721 129.853 54.9401 129.413 54.6761C128.974 54.4056 128.614 54.025 128.369 53.5721C128.113 53.1081 127.985 52.5801 127.985 51.9881C127.985 51.3881 128.113 50.8601 128.369 50.4041C128.611 49.9547 128.972 49.5809 129.413 49.3241C129.853 49.0601 130.357 48.9281 130.925 48.9281C131.477 48.9281 131.961 49.0481 132.377 49.2881C132.793 49.5201 133.117 49.8641 133.349 50.3201C133.589 50.7761 133.709 51.3321 133.709 51.9881C133.709 52.6441 133.593 53.2001 133.361 53.6561C133.145 54.0943 132.808 54.461 132.389 54.7121C131.973 54.9521 131.485 55.0721 130.925 55.0721ZM131.093 54.1361C131.485 54.1361 131.833 54.0521 132.137 53.8841C132.449 53.7081 132.693 53.4601 132.869 53.1401C133.053 52.8121 133.145 52.4281 133.145 51.9881C133.145 51.5401 133.053 51.1561 132.869 50.8361C132.702 50.5254 132.448 50.2707 132.137 50.1041C131.816 49.9319 131.457 49.8451 131.093 49.8521C130.693 49.8521 130.337 49.9401 130.025 50.1161C129.719 50.2856 129.469 50.5398 129.305 50.8481C129.137 51.1681 129.053 51.5481 129.053 51.9881C129.053 52.4201 129.137 52.7961 129.305 53.1161C129.481 53.4361 129.721 53.6881 130.025 53.8721C130.337 54.0481 130.693 54.1361 131.093 54.1361ZM141.235 57.4001C140.658 57.401 140.083 57.3161 139.531 57.1481C138.987 56.9881 138.543 56.7561 138.199 56.4521L138.751 55.5641C139.047 55.8201 139.411 56.0201 139.843 56.1641C140.275 56.3161 140.727 56.3921 141.199 56.3921C141.951 56.3921 142.503 56.2161 142.855 55.8641C143.207 55.5121 143.383 54.9761 143.383 54.2561V52.9121L143.503 51.6521L143.443 50.3801V48.6401H144.535V54.1361C144.535 55.2561 144.255 56.0801 143.695 56.6081C143.135 57.1361 142.315 57.4001 141.235 57.4001ZM141.091 54.7361C140.475 54.7361 139.923 54.6081 139.435 54.3521C138.962 54.0949 138.565 53.7184 138.283 53.2601C138.003 52.7961 137.863 52.2601 137.863 51.6521C137.863 51.0361 138.003 50.5001 138.283 50.0441C138.563 49.5873 138.961 49.2143 139.435 48.9641C139.923 48.7081 140.475 48.5801 141.091 48.5801C141.635 48.5801 142.131 48.6921 142.579 48.9161C143.027 49.1321 143.383 49.4681 143.647 49.9241C143.919 50.3801 144.055 50.9561 144.055 51.6521C144.055 52.3401 143.919 52.9121 143.647 53.3681C143.383 53.8241 143.027 54.1681 142.579 54.4001C142.116 54.6274 141.606 54.7426 141.091 54.7361ZM141.223 53.7281C141.647 53.7281 142.023 53.6401 142.351 53.4641C142.676 53.2877 142.946 53.0255 143.133 52.7059C143.319 52.3864 143.414 52.0218 143.407 51.6521C143.407 51.2441 143.311 50.8841 143.119 50.5721C142.938 50.2629 142.671 50.0128 142.351 49.8521C142.003 49.6713 141.615 49.5805 141.223 49.5881C140.827 49.5815 140.436 49.6721 140.083 49.8521C139.761 50.0146 139.491 50.264 139.303 50.5721C139.115 50.9004 139.019 51.2737 139.027 51.6521C139.027 52.0601 139.119 52.4201 139.303 52.7321C139.495 53.0441 139.755 53.2881 140.083 53.4641C140.436 53.644 140.827 53.7346 141.223 53.7281ZM154.693 48.5801C155.205 48.5801 155.657 48.6801 156.049 48.8801C156.441 49.0801 156.745 49.3841 156.961 49.7921C157.185 50.2001 157.297 50.7161 157.297 51.3401V55.0001H156.145V51.4721C156.145 50.8561 156.001 50.3921 155.713 50.0801C155.425 49.7681 155.021 49.6121 154.501 49.6121C154.117 49.6121 153.781 49.6921 153.493 49.8521C153.205 50.0121 152.981 50.2481 152.821 50.5601C152.669 50.8721 152.593 51.2601 152.593 51.7241V55.0001H151.441V51.4721C151.441 50.8561 151.297 50.3921 151.009 50.0801C150.729 49.7681 150.325 49.6121 149.797 49.6121C149.421 49.6121 149.089 49.6921 148.801 49.8521C148.513 50.0121 148.289 50.2481 148.129 50.5601C147.969 50.8721 147.889 51.2601 147.889 51.7241V55.0001H146.737V48.6401H147.841V50.3321L147.661 49.9001C147.861 49.4841 148.169 49.1601 148.585 48.9281C149.001 48.6961 149.485 48.5801 150.037 48.5801C150.645 48.5801 151.169 48.7321 151.609 49.0361C152.049 49.3321 152.337 49.7841 152.473 50.3921L152.005 50.2001C152.197 49.7121 152.533 49.3201 153.013 49.0241C153.493 48.7281 154.053 48.5801 154.693 48.5801ZM163.364 55.0001V53.6561L163.304 53.4041V51.1121C163.304 50.6241 163.16 50.2481 162.872 49.9841C162.592 49.7121 162.168 49.5761 161.6 49.5761C161.224 49.5761 160.856 49.6401 160.496 49.7681C160.164 49.873 159.854 50.0399 159.584 50.2601L159.104 49.3961C159.432 49.1321 159.824 48.9321 160.28 48.7961C160.75 48.6511 161.24 48.5783 161.732 48.5801C162.604 48.5801 163.276 48.7921 163.748 49.2161C164.22 49.6401 164.456 50.2881 164.456 51.1601V55.0001H163.364ZM161.276 55.0721C160.804 55.0721 160.388 54.9921 160.028 54.8321C159.7 54.6918 159.418 54.4633 159.212 54.1721C159.02 53.8845 158.92 53.5457 158.924 53.2001C158.924 52.8561 159.004 52.5441 159.164 52.2641C159.332 51.9841 159.6 51.7601 159.968 51.5921C160.344 51.4241 160.848 51.3401 161.48 51.3401H163.496V52.1681H161.528C160.952 52.1681 160.564 52.2641 160.364 52.4561C160.268 52.5445 160.192 52.6522 160.14 52.7721C160.088 52.892 160.062 53.0215 160.064 53.1521C160.06 53.2987 160.092 53.4441 160.157 53.5757C160.222 53.7073 160.318 53.8214 160.436 53.9081C160.684 54.0921 161.028 54.1841 161.468 54.1841C161.9 54.1841 162.276 54.0881 162.596 53.8961C162.922 53.7064 163.172 53.4095 163.304 53.0561L163.532 53.8481C163.374 54.2308 163.091 54.5482 162.728 54.7481C162.344 54.9641 161.86 55.0721 161.276 55.0721ZM166.588 55.0001V48.6401H167.74V55.0001H166.588ZM167.164 47.4161C167.06 47.4189 166.957 47.4012 166.86 47.3642C166.764 47.3271 166.675 47.2713 166.6 47.2001C166.53 47.1315 166.474 47.0492 166.437 46.9584C166.4 46.8676 166.382 46.7702 166.384 46.6721C166.384 46.4561 166.456 46.2761 166.6 46.1321C166.675 46.0608 166.764 46.005 166.86 45.968C166.957 45.9309 167.06 45.9133 167.164 45.9161C167.388 45.9161 167.572 45.9881 167.716 46.1321C167.79 46.196 167.848 46.2754 167.888 46.3646C167.927 46.4538 167.946 46.5506 167.944 46.6481C167.944 46.8641 167.872 47.0481 167.728 47.2001C167.654 47.2725 167.565 47.3291 167.468 47.3662C167.371 47.4034 167.268 47.4203 167.164 47.4161ZM169.94 55.0001V46.0961H171.092V55.0001H169.94ZM173.567 55.0721C173.461 55.0739 173.355 55.0547 173.256 55.0155C173.157 54.9764 173.067 54.9181 172.991 54.8441C172.912 54.7657 172.85 54.6721 172.809 54.5689C172.768 54.4657 172.748 54.3552 172.751 54.2441C172.751 54.0041 172.831 53.8081 172.991 53.6561C173.067 53.582 173.157 53.5237 173.256 53.4846C173.355 53.4455 173.461 53.4263 173.567 53.4281C173.783 53.4281 173.967 53.5041 174.119 53.6561C174.279 53.8081 174.359 54.0041 174.359 54.2441C174.359 54.4841 174.279 54.6841 174.119 54.8441C174.047 54.9177 173.962 54.976 173.867 55.0152C173.772 55.0544 173.67 55.0738 173.567 55.0721ZM178.641 55.0721C177.993 55.0721 177.413 54.9321 176.901 54.6521C176.397 54.3721 176.001 53.9881 175.713 53.5001C175.425 53.0121 175.281 52.4521 175.281 51.8201C175.281 51.1881 175.425 50.6281 175.713 50.1401C175.996 49.6572 176.407 49.2625 176.901 49.0001C177.413 48.7201 177.993 48.5801 178.641 48.5801C179.217 48.5801 179.729 48.6961 180.177 48.9281C180.633 49.1521 180.985 49.4881 181.233 49.9361L180.357 50.5001C180.169 50.2057 179.903 49.9689 179.589 49.8161C179.292 49.6638 178.963 49.5856 178.629 49.5881C178.213 49.5881 177.841 49.6801 177.513 49.8641C177.186 50.0471 176.916 50.317 176.733 50.6441C176.541 50.9721 176.445 51.3641 176.445 51.8201C176.445 52.2761 176.541 52.6721 176.733 53.0081C176.925 53.3441 177.185 53.6041 177.513 53.7881C177.841 53.9721 178.213 54.0641 178.629 54.0641C178.973 54.0641 179.293 53.9921 179.589 53.8481C179.902 53.688 180.167 53.4478 180.357 53.1521L181.233 53.7041C180.985 54.1441 180.633 54.4841 180.177 54.7241C179.729 54.9561 179.217 55.0721 178.641 55.0721ZM185.355 55.0721C184.715 55.0721 184.147 54.9321 183.651 54.6521C183.163 54.38 182.757 53.9822 182.475 53.5001C182.183 52.9889 182.034 52.4087 182.043 51.8201C182.043 51.1881 182.187 50.6281 182.475 50.1401C182.763 49.6521 183.155 49.2721 183.651 49.0001C184.147 48.7201 184.715 48.5801 185.355 48.5801C185.987 48.5801 186.551 48.7201 187.047 49.0001C187.551 49.2721 187.943 49.6521 188.223 50.1401C188.511 50.6201 188.655 51.1801 188.655 51.8201C188.655 52.4521 188.511 53.0121 188.223 53.5001C187.943 53.9881 187.551 54.3721 187.047 54.6521C186.551 54.9321 185.987 55.0721 185.355 55.0721ZM185.355 54.0641C185.737 54.0707 186.114 53.9755 186.447 53.7881C186.775 53.6041 187.031 53.3441 187.215 53.0081C187.404 52.6412 187.499 52.2329 187.491 51.8201C187.491 51.3641 187.399 50.9721 187.215 50.6441C187.039 50.316 186.772 50.0453 186.447 49.8641C186.114 49.6767 185.737 49.5814 185.355 49.5881C184.973 49.5814 184.596 49.6767 184.263 49.8641C183.943 50.0481 183.687 50.3081 183.495 50.6441C183.303 50.9721 183.207 51.3641 183.207 51.8201C183.207 52.2681 183.303 52.6641 183.495 53.0081C183.687 53.3441 183.943 53.6041 184.263 53.7881C184.583 53.9721 184.947 54.0641 185.355 54.0641ZM198.204 48.5801C198.716 48.5801 199.168 48.6801 199.56 48.8801C199.952 49.0801 200.256 49.3841 200.472 49.7921C200.696 50.2001 200.808 50.7161 200.808 51.3401V55.0001H199.656V51.4721C199.656 50.8561 199.512 50.3921 199.224 50.0801C198.936 49.7681 198.532 49.6121 198.012 49.6121C197.628 49.6121 197.292 49.6921 197.004 49.8521C196.716 50.0121 196.492 50.2481 196.332 50.5601C196.18 50.8721 196.104 51.2601 196.104 51.7241V55.0001H194.952V51.4721C194.952 50.8561 194.808 50.3921 194.52 50.0801C194.24 49.7681 193.836 49.6121 193.308 49.6121C192.932 49.6121 192.6 49.6921 192.312 49.8521C192.024 50.0121 191.8 50.2481 191.64 50.5601C191.48 50.8721 191.4 51.2601 191.4 51.7241V55.0001H190.248V48.6401H191.352V50.3321L191.172 49.9001C191.372 49.4841 191.68 49.1601 192.096 48.9281C192.512 48.6961 192.996 48.5801 193.548 48.5801C194.156 48.5801 194.68 48.7321 195.12 49.0361C195.56 49.3321 195.848 49.7841 195.984 50.3921L195.516 50.2001C195.708 49.7121 196.044 49.3201 196.524 49.0241C197.004 48.7281 197.564 48.5801 198.204 48.5801Z" fill="#8C9196"/>
<path d="M28 73.5H252C253.933 73.5 255.5 75.067 255.5 77V99C255.5 100.933 253.933 102.5 252 102.5H28C26.067 102.5 24.5 100.933 24.5 99V77C24.5 75.067 26.067 73.5 28 73.5Z" stroke="#F5F5F5"/>
<path d="M49.875 84.563H36.125C36.0347 84.5629 35.9453 84.5806 35.8618 84.615C35.7783 84.6495 35.7025 84.7001 35.6386 84.7639C35.5747 84.8277 35.524 84.9035 35.4894 84.9869C35.4548 85.0703 35.437 85.1597 35.437 85.25V94.875C35.437 95.255 35.745 95.563 36.125 95.563H49.875C50.255 95.563 50.563 95.255 50.563 94.875V85.25C50.5631 85.1596 50.5454 85.0701 50.5109 84.9866C50.4764 84.903 50.4257 84.8271 50.3618 84.7632C50.2979 84.6993 50.222 84.6486 50.1385 84.6141C50.0549 84.5796 49.9654 84.5619 49.875 84.562V84.563Z" stroke="#9E9E9E" stroke-width="1.2" stroke-linecap="round" stroke-linejoin="round"/>
<path d="M39.906 84.563V81.469C39.906 80.6484 40.232 79.8614 40.8122 79.2812C41.3925 78.701 42.1794 78.375 43 78.375C43.8206 78.375 44.6076 78.701 45.1878 79.2812C45.768 79.8614 46.094 80.6484 46.094 81.469V84.563" stroke="#9E9E9E" stroke-width="1.2" stroke-linecap="round" stroke-linejoin="round"/>
<path d="M43 90.922C43.1153 90.9259 43.2303 90.9066 43.338 90.8652C43.4457 90.8238 43.544 90.7611 43.627 90.6809C43.7099 90.6007 43.7759 90.5046 43.821 90.3984C43.8661 90.2921 43.8893 90.1779 43.8893 90.0625C43.8893 89.9471 43.8661 89.8329 43.821 89.7266C43.7759 89.6204 43.7099 89.5243 43.627 89.4441C43.544 89.3639 43.4457 89.3012 43.338 89.2598C43.2303 89.2184 43.1153 89.1991 43 89.203C42.7771 89.2106 42.5659 89.3045 42.4109 89.4649C42.2559 89.6252 42.1693 89.8395 42.1693 90.0625C42.1693 90.2855 42.2559 90.4998 42.4109 90.6602C42.5659 90.8205 42.7771 90.9144 43 90.922Z" fill="#9E9E9E"/>
<path d="M68.572 84.5359L68.2 83.8639L66.748 84.716L66.76 83.0959H66.04L66.052 84.716L64.6 83.8639L64.228 84.5359L65.668 85.3279L64.228 86.132L64.6 86.7919L66.052 85.9399L66.04 87.5719H66.76L66.748 85.9399L68.2 86.7919L68.572 86.132L67.144 85.3279L68.572 84.5359ZM73.612 84.5359L73.239 83.8639L71.787 84.716L71.799 83.0959H71.079L71.091 84.716L69.639 83.8639L69.267 84.5359L70.707 85.3279L69.267 86.132L69.639 86.7919L71.091 85.9399L71.079 87.5719H71.799L71.787 85.9399L73.239 86.7919L73.611 86.132L72.183 85.3279L73.612 84.5359ZM78.65 84.5359L78.278 83.8639L76.826 84.716L76.838 83.0959H76.118L76.13 84.716L74.678 83.8639L74.306 84.5359L75.746 85.3279L74.306 86.132L74.678 86.7919L76.13 85.9399L76.118 87.5719H76.838L76.826 85.9399L78.278 86.7919L78.65 86.132L77.222 85.3279L78.65 84.5359ZM83.69 84.5359L83.317 83.8639L81.865 84.716L81.877 83.0959H81.157L81.169 84.716L79.717 83.8639L79.345 84.5359L80.785 85.3279L79.345 86.132L79.717 86.7919L81.169 85.9399L81.157 87.5719H81.877L81.865 85.9399L83.317 86.7919L83.689 86.132L82.261 85.3279L83.69 84.5359ZM88.728 84.5359L88.356 83.8639L86.904 84.716L86.916 83.0959H86.196L86.208 84.716L84.756 83.8639L84.384 84.5359L85.824 85.3279L84.384 86.132L84.756 86.7919L86.208 85.9399L86.196 87.5719H86.916L86.904 85.9399L88.356 86.7919L88.728 86.132L87.3 85.3279L88.728 84.5359ZM93.768 84.5359L93.395 83.8639L91.943 84.716L91.955 83.0959H91.235L91.247 84.716L89.795 83.8639L89.423 84.5359L90.863 85.3279L89.423 86.132L89.795 86.7919L91.247 85.9399L91.235 87.5719H91.955L91.943 85.9399L93.395 86.7919L93.767 86.132L92.339 85.3279L93.768 84.5359ZM98.806 84.5359L98.434 83.8639L96.982 84.716L96.994 83.0959H96.274L96.286 84.716L94.834 83.8639L94.462 84.5359L95.902 85.3279L94.462 86.132L94.834 86.7919L96.286 85.9399L96.274 87.5719H96.994L96.982 85.9399L98.434 86.7919L98.806 86.132L97.378 85.3279L98.806 84.5359ZM103.845 84.5359L103.473 83.8639L102.021 84.716L102.033 83.0959H101.313L101.325 84.716L99.873 83.8639L99.501 84.5359L100.941 85.3279L99.501 86.132L99.873 86.7919L101.325 85.9399L101.313 87.5719H102.033L102.021 85.9399L103.473 86.7919L103.845 86.132L102.417 85.3279L103.845 84.5359ZM108.885 84.5359L108.513 83.8639L107.061 84.716L107.073 83.0959H106.353L106.365 84.716L104.913 83.8639L104.541 84.5359L105.981 85.3279L104.541 86.132L104.913 86.7919L106.365 85.9399L106.353 87.5719H107.073L107.061 85.9399L108.513 86.7919L108.885 86.132L107.457 85.3279L108.885 84.5359Z" fill="#8C9196"/>
<path d="M156 113H124C116.268 113 110 119.268 110 127C110 134.732 116.268 141 124 141H156C163.732 141 170 134.732 170 127C170 119.268 163.732 113 156 113Z" fill="#8AD0F0"/>
<path d="M133.125 127H146.875M146.875 127L141.25 121.375M146.875 127L141.25 132.625" stroke="black" stroke-width="2" stroke-linecap="round" stroke-linejoin="round"/>
</svg>
