<svg width="280" height="155" viewBox="0 0 280 155" fill="none" xmlns="http://www.w3.org/2000/svg">
<path d="M0.5 10C0.5 4.75329 4.7533 0.5 10 0.5H270C275.247 0.5 279.5 4.75329 279.5 10V145C279.5 150.247 275.247 154.5 270 154.5H10C4.75329 154.5 0.5 150.247 0.5 145V10Z" fill="white" stroke="#F0C9C6"/>
<path d="M195 11H85C81.6863 11 79 13.6863 79 17C79 20.3137 81.6863 23 85 23H195C198.314 23 201 20.3137 201 17C201 13.6863 198.314 11 195 11Z" fill="#EFEFEF"/>
<path d="M266 17C266 13.6863 263.314 11 260 11C256.686 11 254 13.6863 254 17C254 20.3137 256.686 23 260 23C263.314 23 266 20.3137 266 17Z" fill="#E2E2E2"/>
<path d="M17.5 22C20.5376 22 23 19.5376 23 16.5C23 13.4624 20.5376 11 17.5 11C14.4624 11 12 13.4624 12 16.5C12 19.5376 14.4624 22 17.5 22Z" fill="#8AD0F0"/>
<path d="M32.5 22C35.5376 22 38 19.5376 38 16.5C38 13.4624 35.5376 11 32.5 11C29.4624 11 27 13.4624 27 16.5C27 19.5376 29.4624 22 32.5 22Z" fill="#8AD0F0"/>
<path d="M47.5 22C50.5376 22 53 19.5376 53 16.5C53 13.4624 50.5376 11 47.5 11C44.4624 11 42 13.4624 42 16.5C42 19.5376 44.4624 22 47.5 22Z" fill="#8AD0F0"/>
<path d="M45 55C45 52.8783 45.8429 50.8434 47.3431 49.3431C48.8434 47.8429 50.8783 47 53 47H227C229.122 47 231.157 47.8429 232.657 49.3431C234.157 50.8434 235 52.8783 235 55V153H45V55Z" fill="white"/>
<mask id="mask0_27_485" style="mask-type:luminance" maskUnits="userSpaceOnUse" x="45" y="47" width="190" height="106">
<path d="M45 55C45 52.8783 45.8429 50.8434 47.3431 49.3431C48.8434 47.8429 50.8783 47 53 47H227C229.122 47 231.157 47.8429 232.657 49.3431C234.157 50.8434 235 52.8783 235 55V153H45V55Z" fill="white"/>
</mask>
<g mask="url(#mask0_27_485)">
<path d="M44 55C44 52.6131 44.9482 50.3239 46.636 48.636C48.3239 46.9482 50.6131 46 53 46H227C229.387 46 231.676 46.9482 233.364 48.636C235.052 50.3239 236 52.6131 236 55H234C234 53.1435 233.263 51.363 231.95 50.0503C230.637 48.7375 228.857 48 227 48H53C51.1435 48 49.363 48.7375 48.0503 50.0503C46.7375 51.363 46 53.1435 46 55H44ZM44 153V55C44 52.6131 44.9482 50.3239 46.636 48.636C48.3239 46.9482 50.6131 46 53 46V48C51.1435 48 49.363 48.7375 48.0503 50.0503C46.7375 51.363 46 53.1435 46 55V153H44ZM227 46C229.387 46 231.676 46.9482 233.364 48.636C235.052 50.3239 236 52.6131 236 55V153H234V55C234 53.1435 233.263 51.363 231.95 50.0503C230.637 48.7375 228.857 48 227 48V46Z" fill="#EEEEEE"/>
</g>
<path d="M65.216 66.868C64.82 67.288 64.364 67.492 63.848 67.492C63.428 67.492 63.068 67.336 62.66 66.904C64.448 66.328 65.66 64.768 65.66 62.8C65.66 60.292 63.704 58.456 61.064 58.456C58.412 58.456 56.468 60.304 56.468 62.8C56.468 65.08 58.088 66.82 60.392 67.108C61.688 68.476 62.564 68.932 63.812 68.932C64.736 68.932 65.528 68.572 66.08 67.9L65.216 66.868ZM58.436 62.8C58.436 61.204 59.564 60.112 61.064 60.112C62.564 60.112 63.692 61.204 63.692 62.8C63.692 64.396 62.564 65.488 61.064 65.488C59.564 65.488 58.436 64.396 58.436 62.8ZM67.697 62.788C68.345 62.788 68.861 62.296 68.861 61.612C68.861 60.916 68.345 60.46 67.697 60.46C67.049 60.46 66.533 60.916 66.533 61.612C66.533 62.296 67.049 62.788 67.697 62.788ZM67.697 67.096C68.345 67.096 68.861 66.604 68.861 65.92C68.861 65.224 68.345 64.768 67.697 64.768C67.049 64.768 66.533 65.224 66.533 65.92C66.533 66.604 67.049 67.096 67.697 67.096ZM79.494 62.644C80.154 62.32 80.622 61.684 80.622 60.772C80.622 59.416 79.542 58.6 77.61 58.6H73.842V67H77.85C79.974 67 81.066 66.172 81.066 64.732C81.066 63.616 80.442 62.908 79.494 62.644ZM77.502 59.572C78.726 59.572 79.422 60.028 79.422 60.916C79.422 61.804 78.726 62.26 77.502 62.26H75.042V59.572H77.502ZM77.802 66.028H75.042V63.232H77.802C79.134 63.232 79.854 63.664 79.854 64.636C79.854 65.608 79.134 66.028 77.802 66.028ZM88.504 63.856C88.504 61.9 87.196 60.58 85.36 60.58C83.524 60.58 82.168 61.936 82.168 63.82C82.168 65.716 83.536 67.072 85.588 67.072C86.644 67.072 87.52 66.712 88.096 66.04L87.46 65.296C86.992 65.812 86.368 66.064 85.624 66.064C84.364 66.064 83.464 65.32 83.32 64.204H88.48C88.492 64.096 88.504 63.952 88.504 63.856ZM85.36 61.552C86.476 61.552 87.28 62.308 87.4 63.376H83.32C83.44 62.296 84.256 61.552 85.36 61.552ZM91.928 67.072C93.62 67.072 94.676 66.34 94.676 65.188C94.676 62.716 90.644 63.94 90.644 62.44C90.644 61.936 91.136 61.564 92.144 61.564C92.768 61.564 93.404 61.696 93.98 62.068L94.472 61.156C93.92 60.796 92.984 60.58 92.156 60.58C90.524 60.58 89.504 61.348 89.504 62.488C89.504 65.02 93.524 63.784 93.524 65.212C93.524 65.752 93.08 66.076 92.012 66.076C91.184 66.076 90.32 65.8 89.78 65.416L89.3 66.328C89.828 66.748 90.872 67.072 91.928 67.072ZM99.33 65.8C99.09 65.992 98.766 66.1 98.43 66.1C97.794 66.1 97.434 65.716 97.434 65.032V61.588H99.258V60.64H97.434V59.248H96.282V60.64H95.202V61.588H96.282V65.08C96.282 66.364 97.014 67.072 98.298 67.072C98.814 67.072 99.342 66.928 99.69 66.628L99.33 65.8ZM108.806 60.64L106.574 65.74L104.39 60.64H103.19L105.974 67H107.15L109.934 60.64H108.806ZM111.585 59.416C112.041 59.416 112.365 59.08 112.365 58.648C112.365 58.24 112.029 57.916 111.585 57.916C111.484 57.913 111.383 57.9304 111.289 57.967C111.194 58.0037 111.108 58.0589 111.035 58.1294C110.963 58.1998 110.905 58.2841 110.865 58.3773C110.826 58.4705 110.805 58.5707 110.805 58.672C110.805 59.092 111.141 59.416 111.585 59.416ZM111.01 67H112.162V60.64H111.01V67ZM119.21 58.096V61.6C118.682 60.916 117.89 60.58 116.99 60.58C115.13 60.58 113.774 61.876 113.774 63.82C113.774 65.764 115.13 67.072 116.99 67.072C117.926 67.072 118.742 66.712 119.258 65.992V67H120.362V58.096H119.21ZM117.086 66.064C115.862 66.064 114.938 65.176 114.938 63.82C114.938 62.464 115.862 61.588 117.086 61.588C118.298 61.588 119.222 62.464 119.222 63.82C119.222 65.176 118.298 66.064 117.086 66.064ZM128.289 63.856C128.289 61.9 126.981 60.58 125.145 60.58C123.309 60.58 121.953 61.936 121.953 63.82C121.953 65.716 123.321 67.072 125.373 67.072C126.429 67.072 127.305 66.712 127.881 66.04L127.245 65.296C126.777 65.812 126.153 66.064 125.409 66.064C124.149 66.064 123.249 65.32 123.105 64.204H128.265C128.277 64.096 128.289 63.952 128.289 63.856ZM125.145 61.552C126.261 61.552 127.065 62.308 127.185 63.376H123.105C123.225 62.296 124.041 61.552 125.145 61.552ZM132.613 67.072C134.521 67.072 135.913 65.716 135.913 63.82C135.913 61.924 134.521 60.58 132.613 60.58C130.705 60.58 129.301 61.924 129.301 63.82C129.301 65.716 130.705 67.072 132.613 67.072ZM132.613 66.064C131.389 66.064 130.465 65.176 130.465 63.82C130.465 62.464 131.389 61.588 132.613 61.588C133.837 61.588 134.749 62.464 134.749 63.82C134.749 65.176 133.837 66.064 132.613 66.064ZM145.721 60.64V61.624C145.181 60.928 144.317 60.58 143.369 60.58C141.533 60.58 140.141 61.816 140.141 63.652C140.141 65.488 141.533 66.736 143.369 66.736C144.281 66.736 145.109 66.412 145.661 65.752V66.256C145.661 67.696 144.977 68.392 143.477 68.392C142.541 68.392 141.617 68.068 141.029 67.564L140.477 68.452C141.173 69.076 142.349 69.4 143.513 69.4C145.673 69.4 146.813 68.38 146.813 66.136V60.64H145.721ZM143.501 65.728C142.217 65.728 141.305 64.876 141.305 63.652C141.305 62.416 142.217 61.588 143.501 61.588C144.773 61.588 145.685 62.416 145.685 63.652C145.685 64.876 144.773 65.728 143.501 65.728ZM151.33 60.58C150.31 60.58 149.362 60.868 148.702 61.396L149.182 62.26C149.674 61.84 150.442 61.576 151.198 61.576C152.338 61.576 152.902 62.14 152.902 63.112V63.34H151.078C149.182 63.34 148.522 64.18 148.522 65.2C148.522 66.304 149.434 67.072 150.874 67.072C151.87 67.072 152.578 66.736 152.962 66.16V67H154.054V63.16C154.054 61.42 153.07 60.58 151.33 60.58ZM151.066 66.184C150.19 66.184 149.662 65.788 149.662 65.152C149.662 64.612 149.986 64.168 151.126 64.168H152.902V65.056C152.614 65.788 151.93 66.184 151.066 66.184ZM164.142 60.58C163.062 60.58 162.174 61.036 161.694 61.756C161.274 60.964 160.458 60.58 159.486 60.58C158.526 60.58 157.746 60.94 157.29 61.588V60.64H156.186V67H157.338V63.724C157.338 62.344 158.094 61.612 159.246 61.612C160.29 61.612 160.89 62.224 160.89 63.472V67H162.042V63.724C162.042 62.344 162.798 61.612 163.95 61.612C164.994 61.612 165.594 62.224 165.594 63.472V67H166.746V63.34C166.746 61.468 165.69 60.58 164.142 60.58ZM174.649 63.856C174.649 61.9 173.341 60.58 171.505 60.58C169.669 60.58 168.313 61.936 168.313 63.82C168.313 65.716 169.681 67.072 171.733 67.072C172.789 67.072 173.665 66.712 174.241 66.04L173.605 65.296C173.137 65.812 172.513 66.064 171.769 66.064C170.509 66.064 169.609 65.32 169.465 64.204H174.625C174.637 64.096 174.649 63.952 174.649 63.856ZM171.505 61.552C172.621 61.552 173.425 62.308 173.545 63.376H169.465C169.585 62.296 170.401 61.552 171.505 61.552ZM177.33 64.348H178.53C178.53 62.776 180.654 62.644 180.654 60.64C180.654 59.308 179.538 58.504 177.81 58.504C176.406 58.504 175.362 58.996 174.702 59.848L175.578 60.472C176.058 59.86 176.754 59.524 177.726 59.524C178.806 59.524 179.442 60.052 179.442 60.82C179.442 62.2 177.33 62.464 177.33 64.348ZM177.942 67.072C178.043 67.0733 178.144 67.0544 178.238 67.0162C178.331 66.9781 178.416 66.9216 178.488 66.85C178.56 66.7784 178.616 66.6932 178.654 66.5995C178.692 66.5057 178.711 66.4052 178.71 66.304C178.712 66.2024 178.694 66.1015 178.657 66.0072C178.619 65.9129 178.562 65.8272 178.491 65.7554C178.419 65.6836 178.333 65.6271 178.239 65.5894C178.145 65.5517 178.044 65.5335 177.942 65.536C177.84 65.5324 177.738 65.5498 177.642 65.5869C177.547 65.6241 177.46 65.6804 177.387 65.7522C177.314 65.8241 177.256 65.9101 177.218 66.005C177.179 66.0998 177.16 66.2016 177.162 66.304C177.162 66.724 177.486 67.072 177.942 67.072Z" fill="#8AD0F0"/>
<path d="M59.6839 141.282L62.6799 138.398C64.0099 137.124 64.2899 136.27 64.2899 135.318C64.2899 133.638 62.9739 132.588 60.9299 132.588C59.4039 132.588 58.1019 133.134 57.3459 134.072L58.2979 134.898C58.8999 134.17 59.7539 133.834 60.8039 133.834C62.1759 133.834 62.8899 134.45 62.8899 135.458C62.8899 136.074 62.6939 136.69 61.6579 137.698L57.6679 141.548V142.5H64.7099V141.282H59.6839Z" fill="black"/>
<path d="M64.853 143.7H65.897L69.857 132.396H68.814L64.853 143.7ZM74.839 138.096C75.607 137.736 76.027 137.112 76.027 136.284C76.027 134.88 74.803 134.004 72.979 134.004C71.167 134.004 69.955 134.88 69.955 136.284C69.955 137.112 70.363 137.736 71.131 138.096C70.183 138.456 69.655 139.164 69.655 140.124C69.655 141.648 70.939 142.596 72.979 142.596C75.031 142.596 76.327 141.648 76.327 140.124C76.327 139.164 75.799 138.468 74.839 138.096ZM72.979 134.976C74.107 134.976 74.851 135.492 74.851 136.332C74.851 137.16 74.143 137.676 72.979 137.676C71.827 137.676 71.143 137.16 71.143 136.332C71.143 135.492 71.851 134.976 72.979 134.976ZM72.979 141.624C71.647 141.624 70.855 141.036 70.855 140.088C70.855 139.164 71.647 138.588 72.979 138.588C74.311 138.588 75.127 139.164 75.127 140.088C75.127 141.036 74.311 141.624 72.979 141.624Z" fill="#8C9196"/>
<path d="M212 126H200C193.925 126 189 130.925 189 137C189 143.075 193.925 148 200 148H212C218.075 148 223 143.075 223 137C223 130.925 218.075 126 212 126Z" fill="#8AD0F0"/>
<path d="M201.188 137H210.812M210.812 137L206.875 133.062M210.812 137L206.875 140.938" stroke="black" stroke-width="1.5" stroke-linecap="round" stroke-linejoin="round"/>
<path d="M66 81C66 78.2386 63.7614 76 61 76C58.2386 76 56 78.2386 56 81V86C56 88.7614 58.2386 91 61 91C63.7614 91 66 88.7614 66 86V81Z" fill="white"/>
<path d="M56.1689 79.6V80.368H58.1489V88H59.0129V79.6H56.1689ZM61.6689 88.06C61.8422 88.0579 62.0076 87.9873 62.1291 87.8636C62.2505 87.7399 62.318 87.5733 62.3169 87.4C62.3169 87.028 62.0169 86.752 61.6689 86.752C61.5844 86.7518 61.5006 86.7686 61.4226 86.8012C61.3446 86.8339 61.2739 86.8818 61.2146 86.9422C61.1554 87.0025 61.1088 87.0741 61.0776 87.1527C61.0464 87.2314 61.0312 87.3154 61.0329 87.4C61.0329 87.772 61.3209 88.06 61.6689 88.06Z" fill="#8C9196"/>
<path d="M79 79H184C186.485 79 188.5 81.0147 188.5 83.5C188.5 85.9853 186.485 88 184 88H79C76.5147 88 74.5 85.9853 74.5 83.5C74.5 81.0147 76.5147 79 79 79Z" stroke="#EEEEEE"/>
<path d="M58.0001 103.232L60.8561 100.424C61.9841 99.32 62.2361 98.6 62.2361 97.796C62.2361 96.392 61.1561 95.528 59.4521 95.528C58.1681 95.528 57.1241 95.96 56.4761 96.728L57.0881 97.256C57.6401 96.62 58.3961 96.32 59.3801 96.32C60.6641 96.32 61.3481 96.92 61.3481 97.892C61.3481 98.468 61.1681 99.032 60.2201 99.968L56.7281 103.388V104H62.6201V103.232H58.0001ZM64.4701 104.06C64.6432 104.058 64.8083 103.987 64.9295 103.863C65.0507 103.74 65.1181 103.573 65.1171 103.4C65.1171 103.028 64.8171 102.752 64.4691 102.752C64.3845 102.752 64.3007 102.769 64.2227 102.801C64.1447 102.834 64.074 102.882 64.0148 102.942C63.9555 103.003 63.9089 103.074 63.8777 103.153C63.8465 103.231 63.8313 103.315 63.8331 103.4C63.8331 103.772 64.1221 104.06 64.4701 104.06Z" fill="#8C9196"/>
<path d="M131 94.5H79C76.2386 94.5 74 96.7386 74 99.5C74 102.261 76.2386 104.5 79 104.5H131C133.761 104.5 136 102.261 136 99.5C136 96.7386 133.761 94.5 131 94.5Z" fill="#8AD0F0"/>
<path d="M66 113C66 110.239 63.7614 108 61 108C58.2386 108 56 110.239 56 113V118C56 120.761 58.2386 123 61 123C63.7614 123 66 120.761 66 118V113Z" fill="white"/>
<path d="M59.8219 115.2L62.198 112.212V111.6H56.798V112.368H61.094L58.7659 115.284V115.92H59.366C60.926 115.92 61.6339 116.58 61.6339 117.588C61.6339 118.632 60.8659 119.28 59.4739 119.28C58.3819 119.28 57.4099 118.872 56.8699 118.308L56.45 118.992C57.098 119.652 58.2619 120.072 59.4739 120.072C61.5019 120.072 62.5219 118.992 62.5219 117.588C62.5219 116.244 61.6219 115.296 59.8219 115.2ZM64.387 120.06C64.5602 120.058 64.7256 119.987 64.8471 119.864C64.9685 119.74 65.036 119.573 65.035 119.4C65.035 119.028 64.735 118.752 64.387 118.752C64.3024 118.752 64.2186 118.769 64.1406 118.801C64.0626 118.834 63.9919 118.882 63.9326 118.942C63.8734 119.003 63.8268 119.074 63.7956 119.153C63.7644 119.231 63.7492 119.315 63.7509 119.4C63.7509 119.772 64.039 120.06 64.387 120.06Z" fill="#8C9196"/>
<path d="M79 111H165C167.485 111 169.5 113.015 169.5 115.5C169.5 117.985 167.485 120 165 120H79C76.5147 120 74.5 117.985 74.5 115.5C74.5 113.015 76.5147 111 79 111Z" stroke="#EEEEEE"/>
<path d="M0 34H280V35H0V34Z" fill="#EFEFEF"/>
</svg>
