<svg width="280" height="154" viewBox="0 0 280 154" fill="none" xmlns="http://www.w3.org/2000/svg">
<path d="M10 0.5H270C275.247 0.5 279.5 4.75329 279.5 10V144C279.5 149.247 275.247 153.5 270 153.5H10C4.75329 153.5 0.5 149.247 0.5 144V10C0.5 4.7533 4.7533 0.5 10 0.5Z" fill="white" stroke="#F0C9C6"/>
<path d="M99 46.25H40C29.5066 46.25 21 54.7566 21 65.25C21 75.7434 29.5066 84.25 40 84.25H99C109.493 84.25 118 75.7434 118 65.25C118 54.7566 109.493 46.25 99 46.25Z" stroke="#8AD0F0" stroke-width="2"/>
<path d="M31.9119 35.0001L29.2559 31.2401C30.8239 30.6801 31.7199 29.4321 31.7199 27.7041C31.7199 25.2721 29.9599 23.8001 27.0479 23.8001H22.6799V35.0001H24.2799V31.5921H27.0479C27.2879 31.5921 27.5279 31.5761 27.7519 31.5601L30.1679 35.0001H31.9119ZM26.9999 30.2321H24.2799V25.1921H26.9999C29.0479 25.1921 30.1199 26.1041 30.1199 27.7041C30.1199 29.3041 29.0479 30.2321 26.9999 30.2321ZM41.7449 30.8081C41.7449 28.2001 40.0009 26.4401 37.5529 26.4401C35.1049 26.4401 33.2969 28.2481 33.2969 30.7601C33.2969 33.2881 35.1209 35.0961 37.8569 35.0961C39.2649 35.0961 40.4329 34.6161 41.2009 33.7201L40.3529 32.7281C39.7289 33.4161 38.8969 33.7521 37.9049 33.7521C36.2249 33.7521 35.0249 32.7601 34.8329 31.2721H41.7129C41.7289 31.1281 41.7449 30.9361 41.7449 30.8081ZM37.5529 27.7361C39.0409 27.7361 40.1129 28.7441 40.2729 30.1681H34.8329C34.9929 28.7281 36.0809 27.7361 37.5529 27.7361ZM55.1779 26.5201L52.6499 33.3041L50.1379 26.5201H48.8419L46.2819 33.2721L43.8179 26.5201H42.3619L45.5139 35.0001H46.9859L49.4659 28.5681L51.9139 35.0001H53.3859L56.5539 26.5201H55.1779ZM60.9349 26.4401C59.5749 26.4401 58.3109 26.8241 57.4309 27.5281L58.0709 28.6801C58.7269 28.1201 59.7509 27.7681 60.7589 27.7681C62.2789 27.7681 63.0309 28.5201 63.0309 29.8161V30.1201H60.5989C58.0709 30.1201 57.1909 31.2401 57.1909 32.6C57.1909 34.0721 58.4069 35.0961 60.3269 35.0961C61.6549 35.0961 62.5989 34.6481 63.1109 33.8801V35.0001H64.5669V29.8801C64.5669 27.5601 63.2549 26.4401 60.9349 26.4401ZM60.5829 33.9121C59.4149 33.9121 58.7109 33.3841 58.7109 32.5361C58.7109 31.8161 59.1429 31.2241 60.6629 31.2241H63.0309V32.4081C62.6469 33.3841 61.7349 33.9121 60.5829 33.9121ZM68.8809 27.9441V26.5201H67.4099V35.0001H68.9459V30.7761C68.9459 28.9201 69.9699 27.9121 71.6179 27.9121C71.7299 27.9121 71.8419 27.9121 71.9699 27.9281V26.4401C70.4819 26.4401 69.4259 26.9521 68.8819 27.9441H68.8809ZM80.2479 23.1281V27.8001C79.5439 26.8881 78.4879 26.4401 77.2879 26.4401C74.8079 26.4401 72.9999 28.1681 72.9999 30.7601C72.9999 33.3521 74.8079 35.0961 77.2879 35.0961C78.5359 35.0961 79.6239 34.616 80.3119 33.656V35.0001H81.7839V23.1281H80.2479ZM77.4159 33.7521C75.7839 33.7521 74.5519 32.5681 74.5519 30.7601C74.5519 28.9521 75.7839 27.7841 77.4159 27.7841C79.0319 27.7841 80.2639 28.9521 80.2639 30.7601C80.2639 32.5681 79.0319 33.7521 77.4159 33.7521ZM87.1219 35.0961C89.3779 35.0961 90.7859 34.1201 90.7859 32.5841C90.7859 29.2881 85.4099 30.9201 85.4099 28.9201C85.4099 28.2481 86.0659 27.7521 87.4099 27.7521C88.2419 27.7521 89.0899 27.9281 89.8579 28.4241L90.5139 27.2081C89.7779 26.7281 88.5299 26.4401 87.4259 26.4401C85.2499 26.4401 83.8899 27.4641 83.8899 28.9841C83.8899 32.3601 89.2499 30.7121 89.2499 32.6161C89.2499 33.3361 88.6579 33.7681 87.2339 33.7681C86.1299 33.7681 84.9779 33.4001 84.2579 32.8881L83.6179 34.1041C84.3219 34.6641 85.7139 35.0961 87.1219 35.0961Z" fill="#202223"/>
<path d="M57.28 68.194C57.28 66.002 55.36 65.474 53.568 65.026V61.298C54.464 61.346 55.424 61.65 56.288 62.194L56.816 60.914C55.968 60.338 54.768 59.986 53.568 59.938V58.13H52.544V59.954C50.064 60.162 48.928 61.538 48.928 63.122C48.928 65.298 50.784 65.858 52.544 66.29V70.002C51.248 69.922 50 69.41 49.248 68.722L48.656 69.97C49.488 70.738 50.976 71.282 52.544 71.362V73.17H53.568V71.362C56.096 71.154 57.28 69.778 57.28 68.194ZM50.496 63.058C50.496 62.21 51.12 61.49 52.544 61.314V64.77C51.392 64.466 50.496 64.05 50.496 63.058ZM53.568 69.986V66.546C54.752 66.866 55.712 67.266 55.712 68.29C55.712 69.154 55.056 69.842 53.568 69.986ZM60.834 69.858L64.257 66.562C65.777 65.106 66.097 64.13 66.097 63.042C66.097 61.122 64.594 59.922 62.257 59.922C60.514 59.922 59.026 60.546 58.161 61.618L59.249 62.562C59.937 61.73 60.913 61.346 62.113 61.346C63.682 61.346 64.498 62.05 64.498 63.202C64.498 63.906 64.273 64.61 63.089 65.762L58.529 70.162V71.25H66.577V69.858H60.834ZM69.105 71.346C69.681 71.346 70.161 70.882 70.161 70.242C70.161 69.602 69.681 69.154 69.105 69.154C68.513 69.154 68.017 69.602 68.017 70.242C68.017 70.882 68.513 71.346 69.105 71.346ZM74.875 64.514H73.626L73.93 61.442H78.906V60.05H72.586L71.994 65.906H74.538C77.13 65.906 77.93 66.69 77.93 67.954C77.93 69.17 76.97 69.954 75.274 69.954C73.914 69.954 72.666 69.458 71.914 68.754L71.178 70.018C72.138 70.866 73.706 71.378 75.29 71.378C78.154 71.378 79.53 69.826 79.53 67.89C79.53 65.906 78.219 64.514 74.875 64.514ZM85.438 71.378C88.046 71.378 89.998 69.298 89.998 65.65C89.998 62.002 88.046 59.922 85.438 59.922C82.814 59.922 80.862 62.002 80.862 65.65C80.862 69.298 82.814 71.378 85.438 71.378ZM85.438 69.954C83.678 69.954 82.462 68.514 82.462 65.65C82.462 62.786 83.678 61.346 85.438 61.346C87.182 61.346 88.398 62.786 88.398 65.65C88.398 68.514 87.182 69.954 85.438 69.954Z" fill="#8AD0F0"/>
<path d="M164.28 68.194C164.28 66.002 162.36 65.474 160.568 65.026V61.298C161.464 61.346 162.424 61.65 163.288 62.194L163.816 60.914C162.968 60.338 161.768 59.986 160.568 59.938V58.13H159.544V59.954C157.064 60.162 155.928 61.538 155.928 63.122C155.928 65.298 157.784 65.858 159.544 66.29V70.002C158.248 69.922 157 69.41 156.248 68.722L155.656 69.97C156.488 70.738 157.976 71.282 159.544 71.362V73.17H160.568V71.362C163.096 71.154 164.28 69.778 164.28 68.194ZM157.496 63.058C157.496 62.21 158.12 61.49 159.544 61.314V64.77C158.392 64.466 157.496 64.05 157.496 63.058ZM160.568 69.986V66.546C161.752 66.866 162.712 67.266 162.712 68.29C162.712 69.154 162.056 69.842 160.568 69.986ZM168.906 64.514H167.658L167.962 61.442H172.938V60.05H166.618L166.026 65.906H168.57C171.162 65.906 171.962 66.69 171.962 67.954C171.962 69.17 171.002 69.954 169.306 69.954C167.946 69.954 166.698 69.458 165.946 68.754L165.21 70.018C166.17 70.866 167.738 71.378 169.322 71.378C172.186 71.378 173.562 69.826 173.562 67.89C173.562 65.906 172.25 64.514 168.906 64.514ZM175.949 71.346C176.525 71.346 177.005 70.882 177.005 70.242C177.005 69.602 176.525 69.154 175.949 69.154C175.357 69.154 174.861 69.602 174.861 70.242C174.861 70.882 175.357 71.346 175.949 71.346ZM181.718 64.514H180.47L180.774 61.442H185.75V60.05H179.43L178.838 65.906H181.382C183.974 65.906 184.774 66.69 184.774 67.954C184.774 69.17 183.814 69.954 182.118 69.954C180.758 69.954 179.51 69.458 178.758 68.754L178.022 70.018C178.982 70.866 180.55 71.378 182.134 71.378C184.998 71.378 186.374 69.826 186.374 67.89C186.374 65.906 185.062 64.514 181.718 64.514ZM192.282 71.378C194.89 71.378 196.842 69.298 196.842 65.65C196.842 62.002 194.89 59.922 192.282 59.922C189.658 59.922 187.706 62.002 187.706 65.65C187.706 69.298 189.658 71.378 192.282 71.378ZM192.282 69.954C190.522 69.954 189.306 68.514 189.306 65.65C189.306 62.786 190.522 61.346 192.282 61.346C194.026 61.346 195.242 62.786 195.242 65.65C195.242 68.514 194.026 69.954 192.282 69.954Z" fill="#616161"/>
<path d="M206 46H147C136.369 46 127.75 54.6185 127.75 65.25C127.75 75.8815 136.369 84.5 147 84.5H206C216.631 84.5 225.25 75.8815 225.25 65.25C225.25 54.6185 216.631 46 206 46Z" stroke="#EEEEEE" stroke-width="1.5"/>
<path d="M57.28 120.194C57.28 118.002 55.36 117.474 53.568 117.026V113.298C54.464 113.346 55.424 113.65 56.288 114.194L56.816 112.914C55.968 112.338 54.768 111.986 53.568 111.938V110.13H52.544V111.954C50.064 112.162 48.928 113.538 48.928 115.122C48.928 117.298 50.784 117.858 52.544 118.29V122.002C51.248 121.922 50 121.41 49.248 120.722L48.656 121.97C49.488 122.738 50.976 123.282 52.544 123.362V125.17H53.568V123.362C56.096 123.154 57.28 121.778 57.28 120.194ZM50.496 115.058C50.496 114.21 51.12 113.49 52.544 113.314V116.77C51.392 116.466 50.496 116.05 50.496 115.058ZM53.568 121.986V118.546C54.752 118.866 55.712 119.266 55.712 120.29C55.712 121.154 55.056 121.842 53.568 121.986ZM57.909 112.05V113.442H60.437V123.25H62.021V112.05H57.909ZM69.047 123.378C71.655 123.378 73.607 121.298 73.607 117.65C73.607 114.002 71.655 111.922 69.047 111.922C66.423 111.922 64.471 114.002 64.471 117.65C64.471 121.298 66.423 123.378 69.047 123.378ZM69.047 121.954C67.287 121.954 66.071 120.514 66.071 117.65C66.071 114.786 67.287 113.346 69.047 113.346C70.791 113.346 72.007 114.786 72.007 117.65C72.007 120.514 70.791 121.954 69.047 121.954ZM76.012 123.346C76.588 123.346 77.067 122.882 77.067 122.242C77.067 121.602 76.587 121.154 76.012 121.154C75.419 121.154 74.924 121.602 74.924 122.242C74.924 122.882 75.42 123.346 76.012 123.346ZM82.969 123.378C85.577 123.378 87.529 121.298 87.529 117.65C87.529 114.002 85.577 111.922 82.969 111.922C80.345 111.922 78.393 114.002 78.393 117.65C78.393 121.298 80.345 123.378 82.969 123.378ZM82.969 121.954C81.209 121.954 79.993 120.514 79.993 117.65C79.993 114.786 81.209 113.346 82.969 113.346C84.713 113.346 85.929 114.786 85.929 117.65C85.929 120.514 84.713 121.954 82.969 121.954ZM93.641 123.378C96.249 123.378 98.201 121.298 98.201 117.65C98.201 114.002 96.249 111.922 93.641 111.922C91.017 111.922 89.065 114.002 89.065 117.65C89.065 121.298 91.017 123.378 93.641 123.378ZM93.641 121.954C91.881 121.954 90.665 120.514 90.665 117.65C90.665 114.786 91.881 113.346 93.641 113.346C95.385 113.346 96.601 114.786 96.601 117.65C96.601 120.514 95.385 121.954 93.641 121.954Z" fill="#616161"/>
<path d="M107 98H40C29.3685 98 20.75 106.619 20.75 117.25C20.75 127.881 29.3685 136.5 40 136.5H107C117.631 136.5 126.25 127.881 126.25 117.25C126.25 106.619 117.631 98 107 98Z" stroke="#EEEEEE" stroke-width="1.5"/>
<path d="M226 98H155C144.369 98 135.75 106.619 135.75 117.25C135.75 127.881 144.369 136.5 155 136.5H226C236.631 136.5 245.25 127.881 245.25 117.25C245.25 106.619 236.631 98 226 98Z" fill="white"/>
<path d="M172.28 120.194C172.28 118.002 170.36 117.474 168.568 117.026V113.298C169.464 113.346 170.424 113.65 171.288 114.194L171.816 112.914C170.968 112.338 169.768 111.986 168.568 111.938V110.13H167.544V111.954C165.064 112.162 163.928 113.538 163.928 115.122C163.928 117.298 165.784 117.858 167.544 118.29V122.002C166.248 121.922 165 121.41 164.248 120.722L163.656 121.97C164.488 122.738 165.976 123.282 167.544 123.362V125.17H168.568V123.362C171.096 123.154 172.28 121.778 172.28 120.194ZM165.496 115.058C165.496 114.21 166.12 113.49 167.544 113.314V116.77C166.392 116.466 165.496 116.05 165.496 115.058ZM168.568 121.986V118.546C169.752 118.866 170.712 119.266 170.712 120.29C170.712 121.154 170.056 121.842 168.568 121.986ZM175.834 121.858L179.258 118.562C180.778 117.106 181.098 116.13 181.098 115.042C181.098 113.122 179.594 111.922 177.258 111.922C175.514 111.922 174.026 112.546 173.162 113.618L174.25 114.562C174.938 113.73 175.914 113.346 177.114 113.346C178.682 113.346 179.498 114.05 179.498 115.202C179.498 115.906 179.274 116.61 178.09 117.762L173.53 122.162V123.25H181.578V121.858H175.834ZM187.422 123.378C190.03 123.378 191.982 121.298 191.982 117.65C191.982 114.002 190.03 111.922 187.422 111.922C184.798 111.922 182.846 114.002 182.846 117.65C182.846 121.298 184.798 123.378 187.422 123.378ZM187.422 121.954C185.662 121.954 184.446 120.514 184.446 117.65C184.446 114.786 185.662 113.346 187.422 113.346C189.166 113.346 190.382 114.786 190.382 117.65C190.382 120.514 189.166 121.954 187.422 121.954ZM194.387 123.346C194.963 123.346 195.443 122.882 195.443 122.242C195.443 121.602 194.963 121.154 194.387 121.154C193.795 121.154 193.299 121.602 193.299 122.242C193.299 122.882 193.795 123.346 194.387 123.346ZM201.344 123.378C203.952 123.378 205.904 121.298 205.904 117.65C205.904 114.002 203.952 111.922 201.344 111.922C198.72 111.922 196.768 114.002 196.768 117.65C196.768 121.298 198.72 123.378 201.344 123.378ZM201.344 121.954C199.584 121.954 198.368 120.514 198.368 117.65C198.368 114.786 199.584 113.346 201.344 113.346C203.088 113.346 204.304 114.786 204.304 117.65C204.304 120.514 203.088 121.954 201.344 121.954ZM212.016 123.378C214.624 123.378 216.576 121.298 216.576 117.65C216.576 114.002 214.624 111.922 212.016 111.922C209.392 111.922 207.44 114.002 207.44 117.65C207.44 121.298 209.392 123.378 212.016 123.378ZM212.016 121.954C210.256 121.954 209.04 120.514 209.04 117.65C209.04 114.786 210.256 113.346 212.016 113.346C213.76 113.346 214.976 114.786 214.976 117.65C214.976 120.514 213.76 121.954 212.016 121.954Z" fill="#616161"/>
<path d="M226 98H155C144.369 98 135.75 106.619 135.75 117.25C135.75 127.881 144.369 136.5 155 136.5H226C236.631 136.5 245.25 127.881 245.25 117.25C245.25 106.619 236.631 98 226 98Z" stroke="#EEEEEE" stroke-width="1.5"/>
</svg>
