<svg width="13.255859" height="13.255768" viewBox="0 0 13.2559 13.2558" fill="none" xmlns="http://www.w3.org/2000/svg" xmlns:xlink="http://www.w3.org/1999/xlink">
	<desc>
			Created with Pixso.
	</desc>
	<defs/>
	<path id="Vector" d="M6.62793 0C5.31689 0 4.03564 0.388718 2.9458 1.117C1.85547 1.84528 1.00635 2.88042 0.504395 4.09151C0.00292969 5.30258 -0.128418 6.63524 0.127441 7.92091C0.383301 9.2066 1.01416 10.3876 1.94141 11.3145C2.86816 12.2414 4.04932 12.8727 5.33496 13.1284C6.62061 13.3842 7.95312 13.2529 9.16406 12.7513C10.3755 12.2496 11.4106 11.4001 12.1387 10.3101C12.8672 9.22018 13.2559 7.93875 13.2559 6.62788C13.2539 4.87064 12.5552 3.18588 11.3125 1.94331C10.0698 0.700745 8.38525 0.00186157 6.62793 0ZM6.62793 12.2361C5.51855 12.2361 4.43457 11.9072 3.51221 11.2909C2.58984 10.6747 1.87109 9.79881 1.44678 8.77405C1.02197 7.74928 0.911133 6.62166 1.12744 5.53378C1.34375 4.44589 1.87793 3.44661 2.66211 2.66228C3.44678 1.87796 4.4458 1.34383 5.53369 1.12744C6.62158 0.911041 7.74951 1.02209 8.77393 1.44658C9.79883 1.87105 10.6748 2.58986 11.291 3.51213C11.9072 4.43439 12.2363 5.51868 12.2363 6.62788C12.2344 8.11475 11.6431 9.54024 10.5918 10.5916C9.54004 11.643 8.11475 12.2344 6.62793 12.2361ZM10.7065 6.62788C10.7065 6.76311 10.6528 6.89278 10.5571 6.98839C10.4614 7.084 10.332 7.13773 10.1968 7.13773L6.62793 7.13773C6.49268 7.13773 6.36279 7.084 6.26758 6.98839C6.17188 6.89278 6.11816 6.76311 6.11816 6.62788L6.11816 3.05902C6.11816 2.92381 6.17188 2.79413 6.26758 2.69852C6.36279 2.60291 6.49268 2.54918 6.62793 2.54918C6.76318 2.54918 6.89258 2.60291 6.98828 2.69852C7.08398 2.79413 7.1377 2.92381 7.1377 3.05902L7.1377 6.11804L10.1968 6.11804C10.332 6.11804 10.4614 6.17175 10.5571 6.26738C10.6528 6.36299 10.7065 6.49266 10.7065 6.62788Z" fill="#8ACFF0" fill-opacity="1.000000" fill-rule="nonzero"/>
</svg>
