<svg width="131" height="32" viewBox="0 0 131 32" fill="none" xmlns="http://www.w3.org/2000/svg">
<path d="M34.9708 11.1366H48.1571V13.5528H42.973V27.1382H40.1205V13.5528H34.9587V11.1357H34.9699L34.9708 11.1366ZM47.5942 15.5513H50.0318V17.7879H50.0774C50.1584 17.4716 50.3072 17.1664 50.5259 16.8724C50.9934 16.2423 51.6261 15.7538 52.3541 15.461C52.7238 15.3145 53.1175 15.2378 53.5152 15.2349C53.8129 15.2349 54.0325 15.2461 54.1478 15.2582C54.2623 15.2694 54.3767 15.2917 54.5032 15.3029V17.7646C54.3165 17.732 54.1288 17.7056 53.9403 17.6856C53.7532 17.6634 53.565 17.6522 53.3765 17.6521C52.9393 17.6521 52.5262 17.7423 52.1354 17.9126C51.7447 18.081 51.4106 18.3405 51.1241 18.669C50.8183 19.0362 50.5842 19.4575 50.4337 19.911C50.2616 20.4078 50.1807 20.9717 50.1807 21.6164V27.127H47.5831V15.5513H47.5942ZM66.4484 27.1391H63.8963V25.524H63.8498C63.5279 26.112 63.0571 26.5753 62.4245 26.9252C61.7918 27.275 61.148 27.4555 60.493 27.4555C58.9411 27.4555 57.8135 27.0833 57.125 26.326C56.4347 25.5696 56.0895 24.4289 56.0895 22.9041V15.5522H58.6881V22.6556C58.6881 23.6725 58.8835 24.3955 59.2863 24.8132C59.6771 25.2309 60.2399 25.4459 60.9526 25.4459C61.5043 25.4459 61.9528 25.3668 62.3203 25.1965C62.6887 25.0272 62.9874 24.8132 63.206 24.5304C63.4358 24.2596 63.5968 23.921 63.701 23.5367C63.8033 23.1525 63.8498 22.7347 63.8498 22.2835V15.5634H66.4484V27.1391ZM70.8742 23.4241C70.9551 24.1684 71.2417 24.6895 71.7367 24.9937C72.2418 25.2877 72.8401 25.4459 73.5416 25.4459C73.7835 25.4459 74.0589 25.4226 74.3696 25.3891C74.6794 25.3547 74.9781 25.2756 75.2433 25.1751C75.5186 25.0728 75.7364 24.9146 75.9206 24.7118C76.0936 24.5071 76.1736 24.2485 76.1625 23.921C76.161 23.769 76.1275 23.619 76.0642 23.4808C76.0008 23.3426 75.9091 23.2193 75.795 23.119C75.5642 22.905 75.2777 22.7468 74.9204 22.611C74.5224 22.4731 74.1151 22.3637 73.7016 22.2835C73.242 22.1932 72.7824 22.0909 72.3116 21.9895C71.8373 21.8869 71.369 21.7586 70.9086 21.6052C70.4768 21.4669 70.0696 21.2612 69.7019 20.9958C69.3436 20.7458 69.0515 20.4125 68.8506 20.0245C68.6329 19.6291 68.5287 19.1435 68.5287 18.5564C68.5287 17.9237 68.6897 17.4046 69.0004 16.9747C69.3138 16.5485 69.7185 16.1976 70.1848 15.9476C70.6859 15.6827 71.2246 15.496 71.7822 15.394C72.3684 15.2926 72.9322 15.2359 73.4606 15.2359C74.07 15.2359 74.6562 15.3038 75.2088 15.4285C75.7439 15.543 76.2538 15.7532 76.7142 16.049C77.1626 16.3319 77.5301 16.704 77.8297 17.1562C78.1284 17.6074 78.3126 18.161 78.3926 18.8048H75.6796C75.5531 18.1954 75.2767 17.7777 74.8292 17.5739C74.3808 17.3599 73.8635 17.2576 73.2885 17.2576C73.1043 17.2576 72.8857 17.2687 72.6335 17.3032C72.3906 17.3355 72.1515 17.3922 71.9199 17.4725C71.7083 17.5504 71.5162 17.6736 71.3571 17.8335C71.2798 17.9169 71.2197 18.0147 71.1803 18.1214C71.1409 18.228 71.1228 18.3414 71.1273 18.455C71.1273 18.7713 71.2417 19.0197 71.4603 19.2114C71.679 19.403 71.9665 19.5612 72.3228 19.697C72.6791 19.8217 73.082 19.9343 73.5416 20.0245C74.0012 20.1148 74.472 20.2162 74.9558 20.3185C75.4265 20.4199 75.8861 20.5558 76.3467 20.7018C76.8063 20.8488 77.2082 21.0526 77.5655 21.3122C77.9218 21.5717 78.2093 21.8881 78.427 22.2723C78.6456 22.6556 78.761 23.1413 78.761 23.706C78.761 24.3945 78.6001 24.9714 78.2772 25.457C77.9562 25.9315 77.5422 26.326 77.0361 26.62C76.5062 26.9252 75.9322 27.1462 75.3344 27.275C74.7263 27.4088 74.1056 27.4768 73.483 27.4778C72.7857 27.4856 72.0904 27.4021 71.4147 27.2294C70.7821 27.0601 70.2304 26.8116 69.7708 26.4851C69.3165 26.155 68.943 25.7262 68.6785 25.2309C68.4143 24.7341 68.2756 24.1349 68.2533 23.4465H70.8742V23.4241ZM79.4504 15.5531H81.4163V12.0735H84.0149V15.5531H86.3594V17.4604H84.0158V23.6502C84.0158 23.92 84.027 24.147 84.0502 24.3499C84.0726 24.5425 84.1302 24.7118 84.2112 24.8467C84.2991 24.9884 84.4327 25.096 84.5898 25.1519C84.7629 25.2198 84.9806 25.2542 85.2802 25.2542C85.4635 25.2542 85.6477 25.2542 85.8319 25.2421C86.0161 25.2309 86.1994 25.2086 86.3836 25.163V27.1391C86.0961 27.1736 85.8086 27.1959 85.5444 27.2294C85.2659 27.2618 84.9856 27.277 84.7052 27.275C84.0158 27.275 83.4641 27.2071 83.0491 27.0833C82.636 26.9586 82.302 26.767 82.0722 26.5186C81.8303 26.2702 81.6815 25.965 81.5894 25.5919C81.4998 25.1724 81.45 24.7453 81.4405 24.3164V17.4818H79.4746V15.5503H79.4514L79.4504 15.5531ZM88.1988 15.5531H90.6596V17.1217H90.7062C91.0727 16.4444 91.5789 15.9699 92.2338 15.6769C92.9033 15.3792 93.629 15.2288 94.3616 15.2359C95.292 15.2359 96.0968 15.394 96.7871 15.7215C97.4765 16.0379 98.0515 16.4789 98.5111 17.0427C98.9707 17.6074 99.3047 18.2624 99.5345 19.0086C99.7687 19.7847 99.8851 20.5917 99.8797 21.4024C99.8797 22.1811 99.7764 22.9375 99.569 23.6614C99.3784 24.3596 99.0629 25.0175 98.6376 25.6031C98.2198 26.1677 97.6768 26.6278 97.0513 26.9475C96.4075 27.2861 95.6604 27.4555 94.7868 27.4555C94.4049 27.4551 94.0238 27.4208 93.648 27.3531C93.2731 27.2856 92.9071 27.176 92.5567 27.0266C92.2086 26.8813 91.8831 26.6871 91.59 26.4497C91.3007 26.219 91.0488 25.945 90.8429 25.6375H90.7964V31.4198H88.1988V15.5513V15.5531ZM97.2812 21.3568C97.2817 20.8418 97.2122 20.3292 97.0746 19.8329C96.9472 19.3626 96.7367 18.919 96.4531 18.5229C96.184 18.146 95.8348 17.8334 95.4306 17.6074C94.9965 17.3728 94.5099 17.2524 94.0165 17.2576C92.9242 17.2576 92.0961 17.6297 91.5444 18.3759C90.9927 19.1211 90.7164 20.1157 90.7164 21.3568C90.7164 21.9439 90.7862 22.4863 90.935 22.9831C91.0839 23.48 91.2914 23.9098 91.59 24.2708C91.8784 24.6327 92.2227 24.9146 92.6255 25.1174C93.0275 25.3323 93.4992 25.4338 94.0276 25.4338C94.6259 25.4338 95.1199 25.31 95.5339 25.0728C95.9348 24.8421 96.2801 24.5261 96.5452 24.147C96.8095 23.7628 97.0058 23.333 97.1202 22.8482C97.226 22.3581 97.28 21.8582 97.2812 21.3568ZM101.868 11.1366H104.466V13.5537H101.868V11.1366ZM101.868 15.5522H104.466V27.1391H101.868V15.5522ZM106.789 11.1366H109.387V27.1391H106.789V11.1366ZM117.354 27.4555C116.411 27.4555 115.571 27.2973 114.836 26.9931C114.132 26.7041 113.494 26.2734 112.963 25.7278C112.446 25.1711 112.05 24.5135 111.801 23.7963C111.527 23.0046 111.391 22.172 111.399 21.3345C111.399 20.4534 111.536 19.6412 111.801 18.895C112.051 18.1782 112.446 17.5209 112.963 16.9645C113.468 16.4221 114.101 16.0044 114.836 15.6992C115.571 15.394 116.411 15.2359 117.354 15.2359C118.297 15.2359 119.136 15.394 119.872 15.6992C120.608 16.0044 121.228 16.4342 121.745 16.9645C122.262 17.5207 122.657 18.1781 122.907 18.895C123.171 19.6403 123.309 20.4534 123.309 21.3345C123.309 22.2277 123.171 23.0511 122.907 23.7963C122.658 24.5136 122.262 25.1713 121.745 25.7278C121.239 26.2702 120.608 26.6879 119.872 26.9931C119.136 27.2973 118.297 27.4555 117.354 27.4555ZM117.354 25.4338C117.929 25.4338 118.434 25.31 118.859 25.0728C119.274 24.8421 119.631 24.5217 119.906 24.1349C120.182 23.7516 120.377 23.3106 120.516 22.825C120.642 22.3393 120.711 21.8425 120.711 21.3345C120.711 20.8377 120.642 20.352 120.516 19.8552C120.397 19.3839 120.19 18.9394 119.906 18.5452C119.631 18.1622 119.273 17.8458 118.859 17.6195C118.434 17.3823 117.929 17.2576 117.354 17.2576C116.779 17.2576 116.273 17.3823 115.848 17.6195C115.437 17.8493 115.08 18.165 114.802 18.5452C114.522 18.9418 114.316 19.3855 114.193 19.8552C114.065 20.3381 113.999 20.8351 113.996 21.3345C113.996 21.8425 114.066 22.3393 114.193 22.825C114.319 23.3106 114.526 23.7516 114.802 24.1349C115.077 24.5192 115.423 24.8355 115.848 25.0728C116.273 25.3212 116.779 25.4338 117.354 25.4338ZM124.068 15.5531H126.034V12.0735H128.632V15.5531H130.977V17.4604H128.632V23.6502C128.632 23.92 128.643 24.147 128.666 24.3499C128.689 24.5425 128.747 24.7118 128.828 24.8467C128.915 24.9886 129.049 25.0962 129.206 25.1519C129.379 25.2198 129.597 25.2542 129.897 25.2542C130.08 25.2542 130.264 25.2542 130.448 25.2421C130.632 25.2309 130.816 25.2086 131 25.163V27.1391C130.712 27.1736 130.425 27.1959 130.161 27.2294C129.882 27.2618 129.602 27.277 129.322 27.275C128.632 27.275 128.08 27.2071 127.665 27.0833C127.252 26.9586 126.918 26.767 126.689 26.5186C126.448 26.2702 126.298 25.965 126.206 25.5919C126.116 25.1723 126.066 24.7453 126.057 24.3164V17.4818H124.091V15.5503H124.068V15.5531Z" fill="#2F2F2F"/>
<path d="M31.9359 11.1357H20.0262L16.3474 0L12.6557 11.1366L0.746826 11.1245L10.3921 18.0131L6.70219 29.1367L16.3474 22.2593L25.9815 29.1367L22.3028 18.0131L31.9359 11.1357Z" fill="#00B67A"/>
<path d="M23.1299 20.5326L22.3018 18.014L16.3474 22.2603L23.1299 20.5326Z" fill="#126849"/>
</svg>
